<?xml version="1.0" encoding="UTF-8" standalone="no"?>
<!-- Created with Inkscape (http://www.inkscape.org/) -->

<svg
   width="1000"
   height="1400"
   viewBox="0 0 1000 1400"
   version="1.1"
   id="svg734"
   sodipodi:docname="a.svg"
   inkscape:version="1.2.2 (b0a8486541, 2022-12-01)"
   xmlns:inkscape="http://www.inkscape.org/namespaces/inkscape"
   xmlns:sodipodi="http://sodipodi.sourceforge.net/DTD/sodipodi-0.dtd"
   xmlns="http://www.w3.org/2000/svg"
   xmlns:svg="http://www.w3.org/2000/svg">
  <sodipodi:namedview
     id="namedview736"
     pagecolor="#ffffff"
     bordercolor="#000000"
     borderopacity="0.25"
     inkscape:showpageshadow="2"
     inkscape:pageopacity="0.0"
     inkscape:pagecheckerboard="0"
     inkscape:deskcolor="#d1d1d1"
     inkscape:document-units="px"
     showgrid="true"
     inkscape:zoom="0.23911894"
     inkscape:cx="-547.84451"
     inkscape:cy="1888.1817"
     inkscape:window-width="1920"
     inkscape:window-height="1131"
     inkscape:window-x="0"
     inkscape:window-y="0"
     inkscape:window-maximized="1"
     inkscape:current-layer="layer1"
     showguides="true">
    <sodipodi:guide
       position="317.5,132.29166"
       orientation="0,1"
       id="guide7452"
       inkscape:locked="false"
       inkscape:label="Baseline"
       inkscape:color="rgb(0,134,229)" />
    <inkscape:grid
       type="xygrid"
       id="grid11099"
       empspacing="10"
       originx="0"
       originy="0" />
    <sodipodi:guide
       position="312.20833,269.875"
       orientation="0,1"
       id="guide32332"
       inkscape:locked="false"
       inkscape:label="X-Height"
       inkscape:color="rgb(0,134,229)" />
    <sodipodi:guide
       position="312.20833,63.499999"
       orientation="0,1"
       id="guide32334"
       inkscape:locked="false"
       inkscape:label="Descender"
       inkscape:color="rgb(0,134,229)" />
    <sodipodi:guide
       position="306.91666,349.24999"
       orientation="0,1"
       id="guide32336"
       inkscape:locked="false"
       inkscape:label="Ascender"
       inkscape:color="rgb(0,134,229)" />
  </sodipodi:namedview>
  <defs
     id="defs731" />
  <g
     inkscape:label="Layer 1"
     inkscape:groupmode="layer"
     id="layer1">
    <path
       id="rect1556"
       style="fill:#000000;stroke-width:10.3624"
       d="m 285.70302,380.06344 c -87.75995,-1.95023 -169.6586,40.99885 -213.554865,111.99508 l 86.874815,46.84052 c 24.92149,-40.43191 71.02269,-65.39951 120.97674,-65.51819 77.32014,0 140.00065,36.8852 140.00065,109.09391 v 31.81081 c -39.49156,-32.28249 -93.55547,-50.47941 -150.00052,-50.48848 -115.97945,0 -209.999842,75.26181 -209.999842,168.10145 0,92.84043 94.020392,168.10148 209.999842,168.10148 56.54483,-0.15118 110.6231,-18.55218 150.00052,-51.03575 v 51.03575 h 99.99961 V 582.47476 c 0.004,-101.4517 -72.95856,-168.60492 -177.89045,-194.85978 -18.41462,-4.6035 -37.35009,-7.13579 -56.4065,-7.55154 z m -5.70709,277.12359 c 66.27409,0 120.00015,33.44961 120.00015,74.71151 0,41.26193 -53.7253,74.71227 -120.00015,74.71227 -66.27409,0 -120.00011,-33.45034 -120.00011,-74.71227 0,-41.2619 53.72602,-74.71151 120.00011,-74.71151 z"
       sodipodi:nodetypes="ccccsccscccccccsssss" />
  </g>
</svg>
