<?xml version="1.0" encoding="UTF-8" standalone="no"?>
<!-- Created with Inkscape (http://www.inkscape.org/) -->

<svg
   width="1000"
   height="1400"
   viewBox="0 0 264.58333 370.41666"
   version="1.1"
   id="svg734"
   sodipodi:docname="g.svg"
   inkscape:version="1.2.2 (b0a8486541, 2022-12-01)"
   xmlns:inkscape="http://www.inkscape.org/namespaces/inkscape"
   xmlns:sodipodi="http://sodipodi.sourceforge.net/DTD/sodipodi-0.dtd"
   xmlns="http://www.w3.org/2000/svg"
   xmlns:svg="http://www.w3.org/2000/svg">
  <sodipodi:namedview
     id="namedview736"
     pagecolor="#ffffff"
     bordercolor="#000000"
     borderopacity="0.25"
     inkscape:showpageshadow="2"
     inkscape:pageopacity="0.0"
     inkscape:pagecheckerboard="0"
     inkscape:deskcolor="#d1d1d1"
     inkscape:document-units="px"
     showgrid="true"
     inkscape:zoom="0.70132532"
     inkscape:cx="188.21508"
     inkscape:cy="516.87853"
     inkscape:window-width="1920"
     inkscape:window-height="1131"
     inkscape:window-x="0"
     inkscape:window-y="0"
     inkscape:window-maximized="1"
     inkscape:current-layer="layer1"
     showguides="true">
    <sodipodi:guide
       position="317.5,132.29166"
       orientation="0,1"
       id="guide7452"
       inkscape:locked="false"
       inkscape:label="Baseline"
       inkscape:color="rgb(0,134,229)" />
    <inkscape:grid
       type="xygrid"
       id="grid11099"
       empspacing="10"
       originx="0"
       originy="0" />
    <sodipodi:guide
       position="312.20833,269.875"
       orientation="0,1"
       id="guide32332"
       inkscape:locked="false"
       inkscape:label="X-Height"
       inkscape:color="rgb(0,134,229)" />
    <sodipodi:guide
       position="312.20833,63.499999"
       orientation="0,1"
       id="guide32334"
       inkscape:locked="false"
       inkscape:label="Descender"
       inkscape:color="rgb(0,134,229)" />
    <sodipodi:guide
       position="306.91666,349.24999"
       orientation="0,1"
       id="guide32336"
       inkscape:locked="false"
       inkscape:label="Ascender"
       inkscape:color="rgb(0,134,229)" />
  </sodipodi:namedview>
  <defs
     id="defs731" />
  <g
     inkscape:label="Layer 1"
     inkscape:groupmode="layer"
     id="layer1">
    <path
       id="path29048-0"
       style="fill:#000000;fill-opacity:1;stroke-width:3.3"
       d="m 79.375153,100.54151 a 63.500031,68.7917 0 0 0 -63.500029,68.79182 63.500031,68.7917 0 0 0 63.500029,68.79164 63.500031,68.7917 0 0 0 42.333217,-17.61141 v 17.61141 a 37.04169,40.128498 0 0 1 -37.041617,40.13202 37.04169,40.128498 0 0 1 -35.72901,-29.75542 l -25.611019,7.43101 A 63.500031,68.7917 0 0 0 92.955763,306.3276 63.500031,68.7917 0 0 0 148.16678,238.12497 V 100.54151 h -26.45841 v 17.539 a 63.500031,68.7917 0 0 0 -42.333217,-17.539 z m 0,26.4584 a 37.041684,42.333353 0 0 1 37.041617,42.33342 37.041684,42.333353 0 0 1 -37.041617,42.33322 37.041684,42.333353 0 0 1 -37.04182,-42.33322 37.041684,42.333353 0 0 1 37.04182,-42.33342 z" />
  </g>
</svg>
