<?xml version="1.0" encoding="UTF-8" standalone="no"?>
<!-- Created with Inkscape (http://www.inkscape.org/) -->

<svg
   width="1000"
   height="1400"
   viewBox="0 0 1000 1400"
   version="1.1"
   id="svg734"
   sodipodi:docname="g.svg"
   inkscape:version="1.2.2 (b0a8486541, 2022-12-01)"
   xmlns:inkscape="http://www.inkscape.org/namespaces/inkscape"
   xmlns:sodipodi="http://sodipodi.sourceforge.net/DTD/sodipodi-0.dtd"
   xmlns="http://www.w3.org/2000/svg"
   xmlns:svg="http://www.w3.org/2000/svg">
  <sodipodi:namedview
     id="namedview736"
     pagecolor="#ffffff"
     bordercolor="#000000"
     borderopacity="0.25"
     inkscape:showpageshadow="2"
     inkscape:pageopacity="0.0"
     inkscape:pagecheckerboard="0"
     inkscape:deskcolor="#d1d1d1"
     inkscape:document-units="px"
     showgrid="true"
     inkscape:zoom="0.54188637"
     inkscape:cx="256.51134"
     inkscape:cy="761.2297"
     inkscape:window-width="1920"
     inkscape:window-height="1131"
     inkscape:window-x="0"
     inkscape:window-y="0"
     inkscape:window-maximized="1"
     inkscape:current-layer="layer1"
     showguides="true">
    <sodipodi:guide
       position="317.5,132.29166"
       orientation="0,1"
       id="guide7452"
       inkscape:locked="false"
       inkscape:label="Baseline"
       inkscape:color="rgb(0,134,229)" />
    <inkscape:grid
       type="xygrid"
       id="grid11099"
       empspacing="10"
       originx="0"
       originy="0" />
    <sodipodi:guide
       position="312.20833,269.875"
       orientation="0,1"
       id="guide32332"
       inkscape:locked="false"
       inkscape:label="X-Height"
       inkscape:color="rgb(0,134,229)" />
    <sodipodi:guide
       position="312.20833,63.499999"
       orientation="0,1"
       id="guide32334"
       inkscape:locked="false"
       inkscape:label="Descender"
       inkscape:color="rgb(0,134,229)" />
    <sodipodi:guide
       position="306.91666,349.24999"
       orientation="0,1"
       id="guide32336"
       inkscape:locked="false"
       inkscape:label="Ascender"
       inkscape:color="rgb(0,134,229)" />
  </sodipodi:namedview>
  <defs
     id="defs731" />
  <g
     inkscape:label="Layer 1"
     inkscape:groupmode="layer"
     id="layer1">
    <path
       id="path29048-0"
       style="fill:#000000;fill-opacity:1;stroke-width:12.4724"
       d="M 300.00057,379.99939 A 240.00011,260.00012 0 0 0 60.000466,639.99996 240.00011,260.00012 0 0 0 300.00057,899.99985 240.00011,260.00012 0 0 0 460.00012,833.43705 v 66.5628 A 140.00008,151.66676 0 0 1 320.00031,1051.6799 140.00008,151.66676 0 0 1 184.96154,939.2185 L 88.163993,967.3042 A 240.00011,260.00012 0 0 0 351.32885,1157.7736 240.00011,260.00012 0 0 0 560.00041,899.99985 V 379.99939 H 460.00012 v 66.28913 A 240.00011,260.00012 0 0 0 300.00057,379.99939 Z m 0,100.00025 A 140.00006,160.00007 0 0 1 440.00037,639.99996 140.00006,160.00007 0 0 1 300.00057,799.99953 140.00006,160.00007 0 0 1 159.99999,639.99996 140.00006,160.00007 0 0 1 300.00057,479.99964 Z" />
  </g>
</svg>
