<?xml version="1.0" encoding="UTF-8" standalone="no"?>
<!-- Created with Inkscape (http://www.inkscape.org/) -->

<svg
   width="1000"
   height="1400"
   viewBox="0 0 264.58333 370.41666"
   version="1.1"
   id="svg734"
   sodipodi:docname="s.svg"
   inkscape:version="1.2.2 (b0a8486541, 2022-12-01)"
   xmlns:inkscape="http://www.inkscape.org/namespaces/inkscape"
   xmlns:sodipodi="http://sodipodi.sourceforge.net/DTD/sodipodi-0.dtd"
   xmlns="http://www.w3.org/2000/svg"
   xmlns:svg="http://www.w3.org/2000/svg">
  <sodipodi:namedview
     id="namedview736"
     pagecolor="#ffffff"
     bordercolor="#000000"
     borderopacity="0.25"
     inkscape:showpageshadow="2"
     inkscape:pageopacity="0.0"
     inkscape:pagecheckerboard="0"
     inkscape:deskcolor="#d1d1d1"
     inkscape:document-units="px"
     showgrid="true"
     inkscape:zoom="0.62117767"
     inkscape:cx="312.31"
     inkscape:cy="781.57993"
     inkscape:window-width="1920"
     inkscape:window-height="1131"
     inkscape:window-x="0"
     inkscape:window-y="0"
     inkscape:window-maximized="1"
     inkscape:current-layer="layer1"
     showguides="true">
    <sodipodi:guide
       position="317.5,132.29166"
       orientation="0,1"
       id="guide7452"
       inkscape:locked="false"
       inkscape:label="Baseline"
       inkscape:color="rgb(0,134,229)" />
    <inkscape:grid
       type="xygrid"
       id="grid11099"
       empspacing="10"
       originx="0"
       originy="0" />
    <sodipodi:guide
       position="312.20833,269.875"
       orientation="0,1"
       id="guide32332"
       inkscape:locked="false"
       inkscape:label="X-Height"
       inkscape:color="rgb(0,134,229)" />
    <sodipodi:guide
       position="312.20833,63.499999"
       orientation="0,1"
       id="guide32334"
       inkscape:locked="false"
       inkscape:label="Descender"
       inkscape:color="rgb(0,134,229)" />
    <sodipodi:guide
       position="306.91666,349.24999"
       orientation="0,1"
       id="guide32336"
       inkscape:locked="false"
       inkscape:label="Ascender"
       inkscape:color="rgb(0,134,229)" />
  </sodipodi:namedview>
  <defs
     id="defs731" />
  <g
     inkscape:label="Layer 1"
     inkscape:groupmode="layer"
     id="layer1">
    <path
       id="path29048-59"
       style="fill:#000000;fill-opacity:1;stroke-width:2.5023"
       d="M 76.72816,100.54395 A 60.853131,41.274288 0 0 0 33.70309,112.63614 60.853131,41.274288 0 0 0 20.50512,157.61857 60.853131,41.274288 0 0 0 76.72816,183.09254 34.395239,13.758096 0 0 1 111.12337,196.8507 34.395239,13.758096 0 0 1 76.72816,210.60887 34.395239,13.758096 0 0 1 42.33294,196.8507 H 15.875 a 60.853131,41.274288 0 0 0 37.56815,38.12495 60.853131,41.274288 0 0 0 23.28501,3.14935 60.853131,41.274288 0 0 0 43.02506,-12.0922 60.853131,41.274288 0 0 0 13.19797,-44.98243 60.853131,41.274288 0 0 0 -56.22303,-25.47396 34.395239,13.758096 0 0 1 -34.39522,-13.75817 34.395239,13.758096 0 0 1 34.39522,-13.75796 34.395239,13.758096 0 0 1 34.39521,13.75796 h 26.45794 a 60.853131,41.274288 0 0 0 -37.56815,-38.12494 60.853131,41.274288 0 0 0 -23.285,-3.14935 z" />
  </g>
</svg>
