<?xml version="1.0" encoding="UTF-8" standalone="no"?>
<!-- Created with Inkscape (http://www.inkscape.org/) -->

<svg
   version="1.1"
   id="svg1472"
   width="1280"
   height="125"
   viewBox="0 0 1280 125"
   sodipodi:docname="KVANTUMA1451.svg"
   inkscape:version="1.2.2 (b0a8486541, 2022-12-01)"
   xml:space="preserve"
   xmlns:inkscape="http://www.inkscape.org/namespaces/inkscape"
   xmlns:sodipodi="http://sodipodi.sourceforge.net/DTD/sodipodi-0.dtd"
   xmlns="http://www.w3.org/2000/svg"
   xmlns:svg="http://www.w3.org/2000/svg"><defs
     id="defs1476" /><sodipodi:namedview
     id="namedview1474"
     pagecolor="#ffffff"
     bordercolor="#000000"
     borderopacity="0.25"
     inkscape:showpageshadow="2"
     inkscape:pageopacity="0.0"
     inkscape:pagecheckerboard="0"
     inkscape:deskcolor="#d1d1d1"
     showgrid="true"
     showguides="false"
     inkscape:zoom="2.9423349"
     inkscape:cx="104.3389"
     inkscape:cy="131.69813"
     inkscape:window-width="1920"
     inkscape:window-height="1131"
     inkscape:window-x="0"
     inkscape:window-y="0"
     inkscape:window-maximized="1"
     inkscape:current-layer="g1478"><inkscape:grid
       type="xygrid"
       id="grid5389" /></sodipodi:namedview><g
     inkscape:groupmode="layer"
     inkscape:label="Image"
     id="g1478"><path
       style="fill:#ffffff;stroke:#ff4040;stroke-width:0.623622;stroke-dasharray:none;stroke-opacity:1"
       d="M -0.66377212,4.6855649 H 1309.647"
       id="path2066"
       sodipodi:nodetypes="cc" /><path
       style="fill:#ffffff;stroke:#ff4040;stroke-width:0.623622;stroke-dasharray:none;stroke-opacity:1"
       d="M -0.6963786,45.314548 H 1309.6144"
       id="path2066-3"
       sodipodi:nodetypes="cc" /><path
       style="fill:#ffffff;stroke:#ff4040;stroke-width:0.623622;stroke-dasharray:none;stroke-opacity:1"
       d="M -0.67467716,83.637062 H 1309.6361"
       id="path2066-3-6"
       sodipodi:nodetypes="cc" /><path
       style="fill:#ffffff;stroke:#ff4040;stroke-width:0.623622;stroke-dasharray:none;stroke-opacity:1"
       d="M -0.71131818,113.3144 H 1309.5995"
       id="path2066-3-6-7"
       sodipodi:nodetypes="cc" /><path
       id="rect4416"
       style="fill:#000000;fill-opacity:1;stroke-width:0.890517"
       d="M 14.769989,5.0093074 0.01795255,45.000394 5.4985806,44.999605 17.508181,13 29.470075,44.999605 34.998408,45.000394 20.246372,5.0093074 Z"
       sodipodi:nodetypes="cccccccc" /><path
       id="rect4416-7"
       style="fill:#000000;fill-opacity:1;stroke-width:0.890517"
       d="M 520.75204,-79.991085 506,-40 l 5.48063,-7.89e-4 12.0096,-31.999605 11.96189,31.999605 5.52834,7.89e-4 -14.75204,-39.991085 z"
       sodipodi:nodetypes="cccccccc" /><path
       id="rect4416-7-2"
       style="fill:#000000;fill-opacity:1;stroke-width:0.890517"
       d="M 728.75204,-79.99108 714,-40 l 5.48063,-7.8e-4 12.0096,-31.99961 11.9619,31.99961 5.52833,7.8e-4 -14.75203,-39.99108 z"
       sodipodi:nodetypes="cccccccc" /><path
       id="rect5243"
       style="fill:#000000;fill-opacity:1;stroke:none;stroke-width:0.61779;stroke-dasharray:none;stroke-opacity:1"
       d="m 44.988281,4.9960938 v 19.9804682 0.0098 19.980469 h 20.242188 c 5.904054,0 10.658203,-4.45641 10.658203,-9.994141 0,-5.471447 -2.087274,-9.35628 -7.892961,-9.461228 5.8057,-0.104935 7.892961,-5.047783 7.892961,-10.51924 0,-5.5377306 -4.754149,-9.9960943 -10.658203,-9.9960942 z M 50,10 63.744141,9.9941406 c 4.058093,-0.00173 7.326171,2.6760014 7.326171,6.0019534 C 71.070312,19.322043 68.058093,23 64,23 H 50 Z m 0,18 h 13.95703 c 4.058092,0 7.326173,3.676905 7.326173,7.001953 0,3.325047 -3.268079,6.001953 -7.326172,6.001953 H 50.042969 Z"
       sodipodi:nodetypes="ccccsscssccssscccssscc" /><path
       id="rect7879"
       style="fill:#000000;fill-opacity:1;stroke:none;stroke-width:0.623622;stroke-dasharray:none;stroke-opacity:1"
       d="M 105 5 C 96.690016 5 90 11.690016 90 20 L 90 30 C 90 38.309984 96.690016 45 105 45 C 112.6312 45 118.89266 39.357108 119.86523 32 L 114.57617 32 C 113.34213 36.637689 109.53442 40 105 40 C 99.460012 40 95 34.982488 95 28.75 L 95 21.25 C 95 15.017512 99.460012 10 105 10 C 109.53442 10 113.34213 13.362311 114.57617 18 L 119.86523 18 C 118.89266 10.642892 112.6312 5 105 5 z " /><path
       id="rect7879-2"
       style="fill:#000000;fill-opacity:1;stroke:none;stroke-width:0.623622;stroke-dasharray:none;stroke-opacity:1"
       d="m 343,-125 c -8.30998,0 -15,6.69002 -15,15 v 10 c 0,8.30998 6.69002,15 15,15 7.6312,0 13.89266,-5.64289 14.86523,-13 h -5.28906 c -1.23404,4.63769 -5.04175,8 -9.57617,8 -5.53999,0 -10,-5.01751 -10,-11.25 v -7.5 c 0,-6.23249 4.46001,-11.25 10,-11.25 4.53442,0 8.34213,3.36231 9.57617,8 h 5.28906 C 356.89266,-119.35711 350.6312,-125 343,-125 Z" /><path
       id="rect8364-6"
       style="fill:#000000;fill-opacity:1;stroke:none;stroke-width:1.05027;stroke-dasharray:none;stroke-opacity:1"
       d="M 134 5 L 134 45 L 149.10938 45 C 157.35884 45 164 38.358838 164 30.109375 L 164 19.890625 C 164 11.641162 157.35884 5 149.10938 5 C 143.86116 4.9999607 138.50077 4.9999428 134 5 z M 139 10 C 142.00051 9.9999588 145.57346 9.9999723 149.07227 10 C 154.5719 10 159 14.980886 159 21.167969 L 159 28.832031 C 159 35.019115 154.5719 40 149.07227 40 L 139 40 L 139 10 z " /><path
       id="rect9205"
       style="stroke-width:0.623622"
       d="m 179,5 v 40 h 26 V 40 H 184 V 27.5 h 17 v -5 H 184 V 10 h 21 V 5 Z"
       sodipodi:nodetypes="ccccccccccccc" /><path
       id="rect9205-9"
       style="stroke-width:0.623622"
       d="m 294,-125 v 40 h 26 v -5 h -21 v -12.5 h 17 v -5 H 299 V -120 h 21 v -5 z"
       sodipodi:nodetypes="ccccccccccccc" /><path
       id="rect9205-7"
       style="stroke-width:0.623622"
       d="m 220,5 v 40 h 5 V 27.5 h 17 v -5 H 225 V 10 h 21 V 5 Z"
       sodipodi:nodetypes="ccccccccccc" /><path
       id="rect9438"
       style="fill:#000000;fill-opacity:1;stroke:none;stroke-width:0.623622;stroke-dasharray:none;stroke-opacity:1"
       d="m 271,5 c -8.30997,0 -15,6.690024 -15,15 v 10 c 0,8.309976 6.69003,15 15,15 8.30997,0 15,-6.690024 15,-15 v -5 h -16 v 5 h 10.9375 c -0.54945,5.639855 -4.77326,10 -9.9375,10 -5.53997,0 -10,-5.017518 -10,-11.25 v -7.5 C 261,15.017518 265.46003,10 271,10 c 5.16424,0 9.38805,4.360147 9.9375,10 H 286 C 286,11.690024 279.30997,5 271,5 Z"
       sodipodi:nodetypes="sssssccccssssccs" /><path
       id="rect3866"
       style="fill:#000000;fill-opacity:0.99757695;stroke-width:0.623622"
       d="M 490 5 L 490 45 L 495 45 L 495 14 L 495.13086 14 L 505.59766 29.453125 L 510.40234 29.453125 L 520.86914 14 L 521 14 L 521 45 L 526 45 L 526 5 L 523 5 L 521 5 L 520.86914 5 L 508 24 L 495.13086 5 L 495 5 L 490 5 z " /><path
       id="rect3866-9"
       style="fill:#000000;fill-opacity:0.997577;stroke-width:0.623622"
       d="m 669,-80 v 40 h 5 v -31 h 0.13086 l 10.4668,15.45313 h 4.80468 L 699.86914,-71 H 700 v 31 h 5 v -40 h -3 -2 -0.13086 L 687,-61 674.13086,-80 H 674 Z" /><rect
       style="fill:#ff2424;fill-opacity:0.460572;stroke-width:0.623622"
       id="rect1016"
       width="11"
       height="51"
       x="1203"
       y="0" /><rect
       style="fill:#ff2424;fill-opacity:0.460572;stroke-width:0.623622"
       id="rect1016-3"
       width="11"
       height="51"
       x="1228"
       y="0" /><rect
       style="fill:#ff2424;fill-opacity:0.460572;stroke-width:0.623622"
       id="rect1148"
       width="24"
       height="29"
       x="1"
       y="84" /><rect
       style="fill:#ff2424;fill-opacity:0.460572;stroke-width:0.623622"
       id="rect1150"
       width="25"
       height="41"
       x="40"
       y="72" /><rect
       style="fill:#ff2424;fill-opacity:0.460572;stroke-width:0.623622"
       id="rect1152"
       width="23"
       height="29"
       x="77"
       y="84" /><rect
       style="fill:#ff2424;fill-opacity:0.460572;stroke-width:0.623622"
       id="rect1154"
       width="24"
       height="40"
       x="110"
       y="73" /><rect
       style="fill:#ff2424;fill-opacity:0.460572;stroke-width:0.623622"
       id="rect1209"
       width="25"
       height="29"
       x="149"
       y="84" /><rect
       style="fill:#ff2424;fill-opacity:0.460572;stroke-width:0.623622"
       id="rect1238"
       width="16"
       height="42"
       x="185"
       y="71" /><rect
       style="fill:#ff2424;fill-opacity:0.460572;stroke-width:0.623622"
       id="rect1240"
       width="24"
       height="41"
       x="212"
       y="84" /><rect
       style="fill:#ff2424;fill-opacity:0.460572;stroke-width:0.623622"
       id="rect1298"
       width="25"
       height="40"
       x="251"
       y="73" /><rect
       style="fill:#ff2424;fill-opacity:0.460572;stroke-width:0.623622"
       id="rect1357"
       width="7"
       height="40"
       x="290"
       y="73" /><rect
       style="fill:#ff2424;fill-opacity:0.460572;stroke-width:0.623622"
       id="rect1359"
       width="16"
       height="52"
       x="303"
       y="73" /><rect
       style="fill:#ff2424;fill-opacity:0.460572;stroke-width:0.623622"
       id="rect1361"
       width="26"
       height="40"
       x="334"
       y="73" /><rect
       style="fill:#ff2424;fill-opacity:0.460572;stroke-width:0.623622"
       id="rect1363"
       width="13"
       height="39"
       x="372"
       y="73" /><rect
       style="fill:#ff2424;fill-opacity:0.460572;stroke-width:0.623622"
       id="rect1365"
       width="41"
       height="29"
       x="397"
       y="84" /><rect
       style="fill:#ff2424;fill-opacity:0.460572;stroke-width:0.623622"
       id="rect1367"
       width="24"
       height="29"
       x="453"
       y="84" /><rect
       style="fill:#ff2424;fill-opacity:0.460572;stroke-width:0.623622"
       id="rect1369"
       width="26"
       height="29"
       x="490"
       y="84" /><rect
       style="fill:#ff2424;fill-opacity:0.460572;stroke-width:0.623622"
       id="rect1371"
       width="24"
       height="41"
       x="530"
       y="84" /><rect
       style="fill:#ff2424;fill-opacity:0.460572;stroke-width:0.623622"
       id="rect1373"
       width="25"
       height="41"
       x="566"
       y="84" /><rect
       style="fill:#ff2424;fill-opacity:0.460572;stroke-width:0.623622"
       id="rect1375"
       width="21"
       height="29"
       x="606"
       y="84" /><rect
       style="fill:#ff2424;fill-opacity:0.460572;stroke-width:0.623622"
       id="rect1377"
       width="25"
       height="29"
       x="635"
       y="84" /><rect
       style="fill:#ff2424;fill-opacity:0.460572;stroke-width:0.679576"
       id="rect1379"
       width="19"
       height="37"
       x="669"
       y="76" /><rect
       style="fill:#ff2424;fill-opacity:0.460572;stroke-width:0.623622"
       id="rect1381"
       width="24"
       height="29"
       x="698"
       y="84" /><rect
       style="fill:#ff2424;fill-opacity:0.460572;stroke-width:0.623622"
       id="rect1383"
       width="26"
       height="29"
       x="734"
       y="84" /><rect
       style="fill:#ff2424;fill-opacity:0.460572;stroke-width:0.623622"
       id="rect1385"
       width="42"
       height="29"
       x="767"
       y="84" /><rect
       style="fill:#ff2424;fill-opacity:0.460572;stroke-width:0.623622"
       id="rect1387"
       width="26"
       height="29"
       x="817"
       y="84" /><text
       xml:space="preserve"
       style="font-weight:bold;font-size:31.888px;font-family:'Latin Modern Roman';-inkscape-font-specification:'Latin Modern Roman,  Bold';fill:#ff2424;fill-opacity:0.460572;stroke-width:0.207146"
       x="3.6286235"
       y="82.257828"
       id="text1581"><tspan
         sodipodi:role="line"
         id="tspan1579"
         x="3.6286235"
         y="82.257828"
         style="stroke-width:0.207146">a</tspan></text><text
       xml:space="preserve"
       style="font-weight:bold;font-size:31.888px;font-family:'Latin Modern Roman';-inkscape-font-specification:'Latin Modern Roman,  Bold';fill:#ff2424;fill-opacity:0.460572;stroke-width:0.207146"
       x="918.69257"
       y="72.257828"
       id="text1581-3"><tspan
         sodipodi:role="line"
         id="tspan1579-5"
         x="918.69257"
         y="72.257828"
         style="stroke-width:0.207146">0</tspan></text><rect
       style="fill:#ff2424;fill-opacity:0.460572;stroke-width:0.623622"
       id="rect1773"
       width="26"
       height="41"
       x="852"
       y="84" /><rect
       style="fill:#ff2424;fill-opacity:0.460572;stroke-width:0.623622"
       id="rect1775"
       width="22"
       height="29"
       x="887"
       y="84" /><rect
       style="fill:#ff2424;fill-opacity:0.460572;stroke-width:0.623622"
       id="rect1777"
       width="25"
       height="40"
       x="921"
       y="73" /><rect
       style="fill:#ff2424;fill-opacity:0.460572;stroke-width:0.701863"
       id="rect1779"
       width="19"
       height="40"
       x="961"
       y="73" /><rect
       style="fill:#ff2424;fill-opacity:0.460572;stroke-width:0.623622"
       id="rect1781"
       width="25"
       height="41"
       x="995"
       y="72" /><rect
       style="fill:#ff2424;fill-opacity:0.460572;stroke-width:0.623622"
       id="rect1867"
       width="25"
       height="41"
       x="1032"
       y="72" /><rect
       style="fill:#ff2424;fill-opacity:0.460572;stroke-width:0.623622"
       id="rect1869"
       width="28"
       height="40"
       x="1068"
       y="73" /><rect
       style="fill:#ff2424;fill-opacity:0.460572;stroke-width:0.623622"
       id="rect1871"
       width="24"
       height="40"
       x="1107"
       y="73" /><rect
       style="fill:#ff2424;fill-opacity:0.460572;stroke-width:0.623622"
       id="rect1873"
       width="26"
       height="40"
       x="1143"
       y="73" /><rect
       style="fill:#ff2424;fill-opacity:0.460572;stroke-width:0.623622"
       id="rect1875"
       width="25"
       height="40"
       x="1181"
       y="73" /><rect
       style="fill:#ff2424;fill-opacity:0.460572;stroke-width:0.623622"
       id="rect1877"
       width="26"
       height="40"
       x="1216"
       y="73" /><rect
       style="fill:#ff2424;fill-opacity:0.460572;stroke-width:0.623622"
       id="rect1879"
       width="25"
       height="40"
       x="1255"
       y="73" /><path
       id="rect2058"
       style="fill:#000000;fill-opacity:0.997577;stroke-width:0.623622"
       d="M 301 5 L 301 45 L 306 45 L 306 27.5 L 325 27.5 L 325 45 L 330 45 L 330 5 L 325 5 L 325 22.5 L 306 22.5 L 306 5 L 301 5 z " /><path
       id="rect2531-9"
       style="fill:#000000;fill-opacity:0.997577;stroke-width:1.76386"
       d="M 348 5 L 348 45 L 353 45 L 353 5 L 348 5 z " /><path
       id="rect2531-9-1"
       style="fill:#000000;fill-opacity:0.997577;stroke-width:1.47575"
       d="m 385,5 v 27 c 0,5.09902 -3.13401,8 -7,8 -3.86599,0 -7,-3.134007 -7,-7 h -5 c 0,6.627417 5.37258,12 12,12 6.62742,0 12,-5 12,-13 V 5 Z"
       sodipodi:nodetypes="ccscccccc" /><path
       id="rect3044"
       style="fill:#000000;fill-opacity:0.99757695;stroke-width:0.623622"
       d="M 406 5 L 406 45 L 411 45 L 411 27.537109 L 416.5293 22.007812 L 429.80469 45 L 435.57812 45 L 420.18945 18.347656 L 433.53516 5 L 426.46484 5 L 411 20.462891 L 411 5 L 406 5 z " /><path
       id="rect3044-3"
       style="fill:#000000;fill-opacity:0.997577;stroke-width:0.623622"
       d="m 435,-80 v 40 h 5 v -17.46289 l 5.52929,-5.5293 L 458.80468,-40 h 5.77344 L 449.18945,-66.65234 462.53516,-80 h -7.07032 L 440,-64.53711 V -80 Z" /><path
       id="rect3488"
       style="fill:#000000;fill-opacity:0.997577;stroke-width:0.623622"
       d="m 450,5 v 40 h 25 V 40 H 455 V 5 Z"
       sodipodi:nodetypes="ccccccc" /><path
       id="rect6861"
       style="fill:#000000;fill-opacity:0.997577;stroke-width:0.623622"
       d="m 543,5 v 40 h 5 V 18.591797 l 20,19.886719 V 45 h 5 V 5 h -5 V 31.408203 L 548,11.521484 V 5 Z"
       sodipodi:nodetypes="ccccccccccccc" /><path
       id="rect6861-5"
       style="fill:#000000;fill-opacity:0.997577;stroke-width:0.623622"
       d="m 548,-80 v 40 h 5 v -26.4082 l 20,19.886716 V -40 h 5 v -40 h -5 v 26.408203 L 553,-73.47852 V -80 Z"
       sodipodi:nodetypes="ccccccccccccc" /><path
       id="rect7118"
       style="fill:#000000;fill-opacity:0.997577;stroke-width:0.623622"
       d="M 604 5 C 595.69001 5 589 11.690008 589 20 L 589 30 C 589 38.309992 595.69001 45 604 45 C 612.30999 45 619 38.309992 619 30 L 619 20 C 619 11.690008 612.30999 5 604 5 z M 604 10 C 609.53999 10 614 15.017507 614 21.25 L 614 28.75 C 614 34.982493 609.53999 40 604 40 C 598.46001 40 594 34.982493 594 28.75 L 594 21.25 C 594 15.017507 598.46001 10 604 10 z " /><path
       id="rect7118-8"
       style="fill:#000000;fill-opacity:0.997577;stroke-width:0.623622"
       d="m 233,-125 c -8.30999,0 -15,6.69001 -15,15 v 10 c 0,8.30999 6.69001,15 15,15 8.30999,0 15,-6.69001 15,-15 v -10 c 0,-8.30999 -6.69001,-15 -15,-15 z m 0,5 c 5.53999,0 10,5.01751 10,11.25 v 7.5 c 0,6.23249 -4.46001,11.25 -10,11.25 -5.53999,0 -10,-5.01751 -10,-11.25 v -7.5 c 0,-6.23249 4.46001,-11.25 10,-11.25 z" /><path
       id="rect7118-2"
       style="fill:#000000;fill-opacity:0.997577;stroke-width:0.623622"
       d="M 690 5 C 681.69002 5 675 11.690016 675 20 L 675 30 C 675 38.309984 681.69002 45 690 45 C 692.8846 45 695.57333 44.193133 697.85547 42.792969 L 700.94727 45.884766 L 704.48438 42.349609 L 701.62891 39.494141 C 703.73721 36.911562 705 33.608964 705 30 L 705 20 C 705 11.690016 698.30998 5 690 5 z M 690 10 C 695.53998 10 700 15.017513 700 21.25 L 700 28.75 C 700 31.388526 699.19575 33.804254 697.85352 35.71875 L 694.44531 32.310547 L 690.91016 35.847656 L 694.08789 39.025391 C 692.8411 39.65114 691.45802 40 690 40 C 684.46002 40 680 34.982487 680 28.75 L 680 21.25 C 680 15.017513 684.46002 10 690 10 z " /><path
       id="rect7282"
       style="fill:#000000;fill-opacity:1;stroke-width:0.623622"
       d="m 634,5 v 20 20 h 5 V 25 c 0,0 9.33333,0 14,0 5.53997,0 10,-4.460018 10,-10 0,-5.5399835 -4.46003,-10 -10,-10 -4.66667,0 -14,0 -14,0 z m 5,5 c 0,0 8.29948,0 12.44922,0 3.62965,0 6.55078,2.230009 6.55078,5 0,2.769991 -2.92113,5 -6.55078,5 C 647.29948,20 639,20 639,20 Z"
       sodipodi:nodetypes="ccccccscccccsccc" /><path
       id="rect7282-7"
       style="fill:#000000;fill-opacity:1;stroke-width:0.623622"
       d="m 258,-125 v 20 20 h 5 v -20 c 0,0 9.33333,0 14,0 5.53997,0 10,-4.46002 10,-10 0,-5.53998 -4.46003,-10 -10,-10 -4.66667,0 -14,0 -14,0 z m 5,5 c 0,0 8.29948,0 12.44922,0 3.62965,0 6.55078,2.23001 6.55078,5 0,2.76999 -2.92113,5 -6.55078,5 -4.14974,0 -12.44922,0 -12.44922,0 z"
       sodipodi:nodetypes="ccccccscccccsccc" /><path
       id="rect7282-0"
       style="fill:#000000;fill-opacity:1;stroke-width:0.623622"
       d="M 720 5 L 720 25 L 720 45 L 725 45 L 725 25 L 733.67773 25 L 743.35352 45 L 748.9082 45 L 739.23047 24.994141 C 744.66266 24.871941 749 20.462597 749 15 C 749 9.460022 744.53996 5 739 5 L 725 5 L 720 5 z M 725 10 L 737.44922 10 C 741.07887 10 744 12.230012 744 15 C 744 17.769988 741.07887 20 737.44922 20 L 725 20 L 725 10 z " /><path
       id="path8593"
       style="fill:#000000;fill-opacity:1;stroke-width:0.66668"
       d="M 776,5 C 767.71574,5 761,10.116752 761,16.428571 761,22.74039 767.71574,28 776,28 c 5.52284,0 10,2.415519 10,5.571429 C 786,36.727338 781.52284,40 776,40 c -5.52284,0 -10,-3.272662 -10,-6.428571 h -5 C 761,39.883247 767.71574,45 776,45 784.28426,45 791,39.883247 791,33.571429 791,27.25961 784.28426,23 776,23 770.47716,23 766,19.584481 766,16.428571 766,13.272662 770.47716,10 776,10 c 5.52284,0 10,3.272662 10,6.428571 h 5 C 791,10.116752 784.28426,5 776,5 Z"
       sodipodi:nodetypes="sssssccsssssccs" /><path
       id="rect9745"
       style="fill:#000000;fill-opacity:1;stroke-width:0.623622"
       d="M 801 5 L 801 10 L 813 10 L 813 45 L 818 45 L 818 10 L 830 10 L 830 5 L 801 5 z " /><path
       id="rect9745-0"
       style="fill:#000000;fill-opacity:1;stroke-width:0.623622"
       d="m 364,-125 v 5 h 12 v 35 h 5 v -35 h 12 v -5 z" /><path
       id="rect9962"
       style="fill:#000000;fill-opacity:1;stroke-width:0.623622"
       d="M 842 5 L 842 30 C 842 38.309984 848.69002 45 857 45 C 865.30998 45 872 38.309984 872 30 L 872 5 L 867 5 L 867 10 L 867 11 L 867 28.75 C 867 34.982482 862.53997 40 857 40 C 851.46003 40 847 34.982482 847 28.75 L 847 11 L 847 10 L 847 5 L 842 5 z " /><path
       id="rect9962-5"
       style="fill:#000000;fill-opacity:1;stroke-width:0.623622"
       d="m 628,-80 v 25 c 0,8.309984 6.69002,15 15,15 8.30998,0 15,-6.690016 15,-15 v -25 h -5 v 5 1 17.75 c 0,6.232482 -4.46003,11.25 -10,11.25 -5.53997,0 -10,-5.017518 -10,-11.25 V -74 v -1 -5 z" /><path
       id="rect4416-8"
       style="fill:#000000;fill-opacity:1;stroke-width:0.865197"
       d="M 903.07492,44.991087 917,5 911.8266,5.000789 900.49023,37.000394 889.19888,5.000789 883.98045,5 897.90553,44.991087 Z"
       sodipodi:nodetypes="cccccccc" /><path
       id="rect4416-8-6"
       style="fill:#000000;fill-opacity:1;stroke-width:0.865197"
       d="M 489.09447,-40.008913 503.01955,-80 l -5.1734,7.9e-4 -11.33637,31.9996 -11.29135,-31.9996 L 470,-80 l 13.92508,39.991087 z"
       sodipodi:nodetypes="cccccccc" /><path
       id="rect4416-8-9"
       style="fill:#000000;fill-opacity:1;stroke-width:0.775552"
       d="m 928,5 11.18945,39.990234 h 4.15235 L 952.5,13 l 9.1582,31.990234 h 4.15235 L 977,5 h -5 L 963.73438,36 955,5 h -5 L 941.26562,36 933,5 Z"
       sodipodi:nodetypes="cccccccccccccc" /><path
       id="rect11394"
       style="fill:#000000;fill-opacity:1;stroke-width:0.744438"
       d="M 827.58427 -534.17482 L 849.14726 -524.91132 L 849.14586 -500.48169 L 854.14583 -503.74506 L 854.14595 -522.76286 L 871.71688 -515.21329 L 876.81008 -518.53751 L 854.14443 -528.27547 L 854.14447 -551.51007 L 849.14614 -548.24776 L 849.14574 -530.42393 L 832.67747 -537.49904 L 827.58427 -534.17482 z "
       transform="rotate(33.131577)" /><path
       id="rect11394-6"
       style="fill:#000000;fill-opacity:1;stroke-width:0.744438"
       d="M 1022.9941,5 1036.5,25.3125 V 45 h 5 V 25.242188 L 1054.7109,5 h -5.9687 L 1039,19.925781 1029.0762,5 Z"
       sodipodi:nodetypes="cccccccccc" /><path
       id="rect11920"
       style="fill:#000000;fill-opacity:1;stroke-width:0.623622"
       d="M 1063 5 L 1063 10 L 1083.9453 10 L 1063 39.658203 L 1063 45 L 1065.3496 45 L 1090 45 L 1090 40 L 1068.8789 40 L 1090 10.091797 L 1090 5 L 1087.4746 5 L 1063 5 z " /><rect
       style="fill:#000000;fill-opacity:1;stroke-width:0.748346"
       id="rect12852"
       width="6"
       height="6"
       x="1128"
       y="39" /><rect
       style="fill:#000000;fill-opacity:1;stroke-width:0.748346"
       id="rect12852-5"
       width="6"
       height="6"
       x="1106"
       y="39" /><rect
       style="fill:#000000;fill-opacity:1;stroke-width:0.748346"
       id="rect12852-5-0"
       width="6"
       height="6"
       x="1106"
       y="25" /><rect
       style="fill:#000000;fill-opacity:1;stroke-width:1.08014"
       id="rect12852-4"
       width="15"
       height="5"
       x="1173"
       y="28" /><path
       id="rect12852-9"
       style="fill:#000000;fill-opacity:1;stroke-width:0.748346"
       d="m 1151,39 v 8 h 6 v -8 z m 0,8 v 2 3 h 3 c 1.662,0 3,-1.338002 3,-3 v -5 z"
       sodipodi:nodetypes="ccccccccsscc" /><path
       id="rect9745-3"
       style="fill:#000000;fill-opacity:1;stroke-width:0.623622"
       d="m 588,-80 v 5 h 12 v 35 h 5 v -35 h 12 v -5 z" /><rect
       style="fill:#000000;fill-opacity:1;stroke-width:0.623622"
       id="rect669"
       width="19"
       height="5"
       x="514"
       y="-51" /><rect
       style="fill:#000000;fill-opacity:1;stroke-width:0.663382"
       id="rect669-1"
       width="21.5"
       height="5"
       x="721.5"
       y="-51" /><path
       id="rect4416-7-27"
       style="fill:#000000;fill-opacity:1;stroke-width:0.890517"
       d="M 520.75204,-139.99554 506,-100.00446 l 5.48063,-7.9e-4 12.0096,-31.9996 11.96189,31.9996 5.52834,7.9e-4 -14.75204,-39.99108 z"
       sodipodi:nodetypes="cccccccc" /><path
       id="rect4416-7-2-0"
       style="fill:#000000;fill-opacity:1;stroke-width:0.890517"
       d="M 728.75204,-139.99554 714,-100.00446 l 5.48063,-7.8e-4 12.0096,-31.99961 11.9619,31.99961 5.52833,7.8e-4 -14.75203,-39.99108 z"
       sodipodi:nodetypes="cccccccc" /><path
       id="rect3866-9-9"
       style="fill:#000000;fill-opacity:0.997577;stroke-width:0.623622"
       d="m 669,-140.00446 v 40 h 5 v -31 h 0.13086 l 10.4668,15.45313 h 4.80468 l 10.4668,-15.45313 H 700 v 31 h 5 v -40 h -3 -2 -0.13086 l -12.86914,19 -12.86914,-19 H 674 Z" /><path
       id="rect3044-3-3"
       style="fill:#000000;fill-opacity:0.997577;stroke-width:0.623622"
       d="m 435,-140.00446 v 40 h 5 v -17.46289 l 5.52929,-5.5293 13.27539,22.99219 h 5.77344 l -15.38867,-26.65234 13.34571,-13.34766 h -7.07032 L 440,-124.54157 v -15.46289 z" /><path
       id="rect6861-5-6"
       style="fill:#000000;fill-opacity:0.997577;stroke-width:0.623622"
       d="m 548,-140.00446 v 40 h 5 v -26.4082 l 20,19.88672 v 6.52148 h 5 v -40 h -5 v 26.40821 l -20,-19.88673 v -6.52148 z"
       sodipodi:nodetypes="ccccccccccccc" /><path
       id="rect9962-5-0"
       style="fill:#000000;fill-opacity:1;stroke-width:0.623622"
       d="m 628,-140.00446 v 25 c 0,8.30999 6.69002,15 15,15 8.30998,0 15,-6.69001 15,-15 v -25 h -5 v 5 1 17.75 c 0,6.23248 -4.46003,11.25 -10,11.25 -5.53997,0 -10,-5.01752 -10,-11.25 v -17.75 -1 -5 z" /><path
       id="rect4416-8-6-6"
       style="fill:#000000;fill-opacity:1;stroke-width:0.865197"
       d="m 489.09447,-100.01337 13.92508,-39.99109 -5.1734,7.9e-4 -11.33637,31.9996 -11.29135,-31.9996 -5.21843,-7.9e-4 13.92508,39.99109 z"
       sodipodi:nodetypes="cccccccc" /><path
       id="rect9745-3-2"
       style="fill:#000000;fill-opacity:1;stroke-width:0.623622"
       d="m 588,-140.00446 v 5 h 12 v 35 h 5 v -35 h 12 v -5 z" /><path
       id="rect12933"
       style="fill:#000000;fill-opacity:1;stroke-width:0.623622"
       d="M 1214 0.044921875 C 1207.8239 0.55038043 1203 5.6891939 1203 12 L 1203 39 C 1203 45.310806 1207.8239 50.44962 1214 50.955078 L 1214 45.753906 C 1210.5137 44.88963 1207.9414 41.760933 1207.9414 38 L 1207.9414 13 C 1207.9414 9.2390675 1210.5137 6.1103701 1214 5.2460938 L 1214 0.044921875 z M 1228 0.044921875 L 1228 5.2460938 C 1231.4863 6.1103701 1234.0586 9.2390675 1234.0586 13 L 1234.0586 38 C 1234.0586 41.760933 1231.4863 44.88963 1228 45.753906 L 1228 50.955078 C 1234.1761 50.44962 1239 45.310806 1239 39 L 1239 12 C 1239 5.6891939 1234.1761 0.55038043 1228 0.044921875 z " /></g></svg>
