<?xml version="1.0" encoding="UTF-8" standalone="no"?>
<!-- Created with Inkscape (http://www.inkscape.org/) -->

<svg
   version="1.1"
   id="svg1472"
   width="1359.647"
   height="266.00446"
   viewBox="0 0 1359.647 266.00446"
   sodipodi:docname="KVANTUMA1451.svg"
   inkscape:version="1.2.2 (b0a8486541, 2022-12-01)"
   xml:space="preserve"
   xmlns:inkscape="http://www.inkscape.org/namespaces/inkscape"
   xmlns:sodipodi="http://sodipodi.sourceforge.net/DTD/sodipodi-0.dtd"
   xmlns="http://www.w3.org/2000/svg"
   xmlns:svg="http://www.w3.org/2000/svg"><defs
     id="defs1476" /><sodipodi:namedview
     id="namedview1474"
     pagecolor="#ffffff"
     bordercolor="#000000"
     borderopacity="0.25"
     inkscape:showpageshadow="2"
     inkscape:pageopacity="0.0"
     inkscape:pagecheckerboard="0"
     inkscape:deskcolor="#d1d1d1"
     showgrid="true"
     showguides="false"
     inkscape:zoom="7.7508549"
     inkscape:cx="897.06233"
     inkscape:cy="238.23178"
     inkscape:window-width="1920"
     inkscape:window-height="1131"
     inkscape:window-x="0"
     inkscape:window-y="0"
     inkscape:window-maximized="1"
     inkscape:current-layer="g1478"><inkscape:grid
       type="xygrid"
       id="grid5389"
       originx="50.000001"
       originy="140.00446" /></sodipodi:namedview><g
     inkscape:groupmode="layer"
     inkscape:label="Image"
     id="g1478"
     transform="translate(50,140.00446)"><path
       style="fill:#ffffff;stroke:#ff4040;stroke-width:0.635254;stroke-dasharray:none;stroke-opacity:1"
       d="M -50,4.6855649 H 1309.647"
       id="path2066"
       sodipodi:nodetypes="cc" /><path
       style="fill:#ffffff;stroke:#ff4040;stroke-width:0.635246;stroke-dasharray:none;stroke-opacity:1"
       d="M -50,45.314548 H 1309.6144"
       id="path2066-3"
       sodipodi:nodetypes="cc" /><path
       style="fill:#ffffff;stroke:#ff4040;stroke-width:0.623622;stroke-dasharray:none;stroke-opacity:1"
       d="M -1,86.688189 H 1309.3108"
       id="path2066-3-6"
       sodipodi:nodetypes="cc" /><path
       style="fill:#ffffff;stroke:#ff4040;stroke-width:0.623622;stroke-dasharray:none;stroke-opacity:1"
       d="M -0.71131818,113.3144 H 1309.5995"
       id="path2066-3-6-7"
       sodipodi:nodetypes="cc" /><path
       id="rect4416"
       style="fill:#000000;fill-opacity:1;stroke-width:0.890875"
       d="M 14.777768,5.0097656 0.01757813,45.009766 H 5.5011069 L 7.7543174,39.0083 H 27.243709 l 2.243439,6.001466 h 5.53043 L 20.257388,5.0097656 Z m 2.73981,7.9921854 7.855946,21.005128 H 9.6323184 Z" /><path
       id="rect4416-7"
       style="fill:#000000;fill-opacity:1;stroke-width:0.890517"
       d="M 520.75204,-79.991085 506,-40 l 5.48063,-7.89e-4 12.0096,-31.999605 11.96189,31.999605 5.52834,7.89e-4 -14.75204,-39.991085 z"
       sodipodi:nodetypes="cccccccc" /><path
       id="rect4416-7-2"
       style="fill:#000000;fill-opacity:1;stroke-width:0.890865"
       d="m -30.23972,5.00892 -14.76028,40 5.483691,-7.8e-4 L -27.5,13.001392 -15.531418,45.00814 -10,45.00892 l -14.76027,-40 z"
       sodipodi:nodetypes="cccccccc" /><path
       id="rect5243"
       style="fill:#000000;fill-opacity:1;stroke:none;stroke-width:0.619011;stroke-dasharray:none;stroke-opacity:1"
       d="m 44.988281,4.9960938 v 19.9950962 0.0098 19.995097 h 20.30744 c 5.923086,0 10.69256,-4.459673 10.69256,-10.001458 0,-5.475453 -2.094002,-9.36313 -7.918404,-9.468155 5.824415,-0.105011 7.918404,-5.051478 7.918404,-10.526941 0,-5.5417846 -4.769474,-10.0034123 -10.69256,-10.0034122 z m 5.027875,5.0075692 13.788445,-0.00586 c 4.071175,-0.00173 7.349788,2.67796 7.349788,6.006347 0,3.328384 -3.021929,7.009034 -7.093104,7.009034 H 50.016156 Z m 0,18.013178 h 14.002021 c 4.071173,0 7.349789,3.679597 7.349789,7.007079 0,3.327482 -3.278614,6.006348 -7.349788,6.006348 H 50.059263 Z"
       sodipodi:nodetypes="ccccsscssccssscccssscc" /><path
       id="rect7879"
       style="fill:#000000;fill-opacity:1;stroke:none;stroke-width:0.625027;stroke-dasharray:none;stroke-opacity:1"
       d="M 105.06769,5 C 96.720205,5 90,11.690016 90,20 v 10 c 0,8.309984 6.720205,15 15.06769,15 7.66564,0 13.95535,-5.642892 14.93231,-13 h -5.31293 c -1.23961,4.637689 -5.0645,8 -9.61938,8 -5.564989,0 -10.045127,-5.017512 -10.045127,-11.25 v -7.5 c 0,-6.232488 4.480138,-11.25 10.045127,-11.25 4.55488,0 8.37977,3.362311 9.61938,8 H 120 C 119.02304,10.642892 112.73333,5 105.06769,5 Z" /><path
       id="rect7879-2"
       style="fill:#000000;fill-opacity:1;stroke:none;stroke-width:0.623622;stroke-dasharray:none;stroke-opacity:1"
       d="m 343,-125 c -8.30998,0 -15,6.69002 -15,15 v 10 c 0,8.30998 6.69002,15 15,15 7.6312,0 13.89266,-5.64289 14.86523,-13 h -5.28906 c -1.23404,4.63769 -5.04175,8 -9.57617,8 -5.53999,0 -10,-5.01751 -10,-11.25 v -7.5 c 0,-6.23249 4.46001,-11.25 10,-11.25 4.53442,0 8.34213,3.36231 9.57617,8 h 5.28906 C 356.89266,-119.35711 350.6312,-125 343,-125 Z" /><path
       id="rect8364-6"
       style="fill:#000000;fill-opacity:1;stroke:none;stroke-width:1.05027;stroke-dasharray:none;stroke-opacity:1"
       d="m 134,5 v 40 h 15.10938 C 157.35884,45 164,38.358838 164,30.109375 V 19.890625 C 164,11.641162 157.35884,5 149.10938,5 143.86116,4.9999607 138.50077,4.9999428 134,5 Z m 5,5 c 3.00051,-4.12e-5 6.57346,-2.77e-5 10.07227,0 C 154.5719,10 159,14.980886 159,21.167969 v 7.664062 C 159,35.019115 154.5719,40 149.07227,40 H 139 Z" /><path
       id="rect9205"
       style="stroke-width:0.623622"
       d="m 179,5 v 40 h 26 V 40 H 184 V 27.5 h 17 v -5 H 184 V 10 h 21 V 5 Z"
       sodipodi:nodetypes="ccccccccccccc" /><path
       id="rect9205-9"
       style="stroke-width:0.623622"
       d="m 294,-125 v 40 h 26 v -5 h -21 v -12.5 h 17 v -5 H 299 V -120 h 21 v -5 z"
       sodipodi:nodetypes="ccccccccccccc" /><path
       id="rect9205-7"
       style="stroke-width:0.623622"
       d="m 220,5 v 40 h 5 V 27.5 h 17 v -5 H 225 V 10 h 21 V 5 Z"
       sodipodi:nodetypes="ccccccccccc" /><path
       id="rect9438"
       style="fill:#000000;fill-opacity:1;stroke:none;stroke-width:0.623622;stroke-dasharray:none;stroke-opacity:1"
       d="m 271,5 c -8.30997,0 -15,6.690024 -15,15 v 10 c 0,8.309976 6.69003,15 15,15 8.30997,0 15,-6.690024 15,-15 v -5 h -16 v 5 h 10.9375 c -0.54945,5.639855 -4.77326,10 -9.9375,10 -5.53997,0 -10,-5.017518 -10,-11.25 v -7.5 C 261,15.017518 265.46003,10 271,10 c 5.16424,0 9.38805,4.360147 9.9375,10 H 286 C 286,11.690024 279.30997,5 271,5 Z"
       sodipodi:nodetypes="sssssccccssssccs" /><path
       id="rect3866"
       style="fill:#000000;fill-opacity:0.997577;stroke-width:0.623622"
       d="m 490,5 v 40 h 5 V 14 h 0.13086 l 10.4668,15.453125 h 4.80468 L 520.86914,14 H 521 v 31 h 5 V 5 h -3 -2 -0.13086 L 508,24 495.13086,5 H 495 Z" /><path
       id="rect3866-9"
       style="fill:#000000;fill-opacity:0.997577;stroke-width:0.623622"
       d="m 669,-80 v 40 h 5 v -31 h 0.13086 l 10.4668,15.45313 h 4.80468 L 699.86914,-71 H 700 v 31 h 5 v -40 h -3 -2 -0.13086 L 687,-61 674.13086,-80 H 674 Z" /><rect
       style="fill:#ff2424;fill-opacity:0.460572;stroke-width:0.587733"
       id="rect1148"
       width="23"
       height="26.878048"
       x="2"
       y="87" /><rect
       style="fill:#ff2424;fill-opacity:0.460572;stroke-width:0.623622"
       id="rect1150"
       width="25"
       height="41"
       x="40"
       y="72" /><rect
       style="fill:#ff2424;fill-opacity:0.460572;stroke-width:0.587176"
       id="rect1152"
       width="22"
       height="26.878048"
       x="77"
       y="87" /><rect
       style="fill:#ff2424;fill-opacity:0.458824;stroke-width:0.644389"
       id="rect1154"
       width="25"
       height="41"
       x="110"
       y="72" /><rect
       style="fill:#ff2424;fill-opacity:0.460572;stroke-width:0.600373"
       id="rect1209"
       width="25"
       height="26.878048"
       x="149"
       y="87" /><rect
       style="fill:#ff2424;fill-opacity:0.460572;stroke-width:0.623622"
       id="rect1238"
       width="16"
       height="42"
       x="185"
       y="71" /><rect
       style="fill:#ff2424;fill-opacity:0.460572;stroke-width:0.612754"
       id="rect1240"
       width="25"
       height="38"
       x="212"
       y="87" /><rect
       style="fill:#ff2424;fill-opacity:0.460572;stroke-width:0.611022"
       id="rect1298"
       width="24.000002"
       height="40"
       x="251"
       y="73" /><rect
       style="fill:#ff2424;fill-opacity:0.460572;stroke-width:0.623622"
       id="rect1357"
       width="7"
       height="40"
       x="290"
       y="73" /><rect
       style="fill:#ff2424;fill-opacity:0.460572;stroke-width:0.623622"
       id="rect1359"
       width="16"
       height="52"
       x="303"
       y="73" /><rect
       style="fill:#ff2424;fill-opacity:0.460572;stroke-width:0.623622"
       id="rect1361"
       width="26"
       height="40"
       x="334"
       y="73" /><rect
       style="fill:#ff2424;fill-opacity:0.460572;stroke-width:0.623622"
       id="rect1363"
       width="13"
       height="39"
       x="372"
       y="74" /><rect
       style="fill:#ff2424;fill-opacity:0.460572;stroke-width:0.614842"
       id="rect1365"
       width="43"
       height="26.878048"
       x="397"
       y="87" /><rect
       style="fill:#ff2424;fill-opacity:0.460572;stroke-width:0.600373"
       id="rect1367"
       width="24"
       height="26.878048"
       x="453"
       y="87" /><rect
       style="fill:#ff2424;fill-opacity:0.460572;stroke-width:0.600373"
       id="rect1369"
       width="26"
       height="26.878048"
       x="490"
       y="87" /><rect
       style="fill:#ff2424;fill-opacity:0.460572;stroke-width:0.612754"
       id="rect1371"
       width="25.000002"
       height="38"
       x="530"
       y="87" /><rect
       style="fill:#ff2424;fill-opacity:0.460572;stroke-width:0.600373"
       id="rect1373"
       width="25"
       height="38"
       x="566"
       y="87" /><rect
       style="fill:#ff2424;fill-opacity:0.460572;stroke-width:0.600373"
       id="rect1375"
       width="21"
       height="26.878048"
       x="606"
       y="87" /><rect
       style="fill:#ff2424;fill-opacity:0.460572;stroke-width:0.575858"
       id="rect1377"
       width="23.000002"
       height="26.878048"
       x="635"
       y="87" /><rect
       style="fill:#ff2424;fill-opacity:0.460572;stroke-width:0.679576"
       id="rect1379"
       width="19"
       height="37"
       x="669"
       y="76" /><rect
       style="fill:#ff2424;fill-opacity:0.460572;stroke-width:0.600373"
       id="rect1381"
       width="24"
       height="26.878048"
       x="698"
       y="87" /><rect
       style="fill:#ff2424;fill-opacity:0.460572;stroke-width:0.588715"
       id="rect1383"
       width="24.999998"
       height="26.878048"
       x="735"
       y="87" /><rect
       style="fill:#ff2424;fill-opacity:0.460572;stroke-width:0.600373"
       id="rect1385"
       width="42"
       height="26.878048"
       x="767"
       y="87" /><rect
       style="fill:#ff2424;fill-opacity:0.460572;stroke-width:0.600373"
       id="rect1387"
       width="26"
       height="26.878048"
       x="818"
       y="87" /><text
       xml:space="preserve"
       style="font-weight:bold;font-size:31.888px;font-family:'Latin Modern Roman';-inkscape-font-specification:'Latin Modern Roman,  Bold';fill:#ff2424;fill-opacity:0.460572;stroke-width:0.207146"
       x="918.69257"
       y="72.257828"
       id="text1581-3"><tspan
         sodipodi:role="line"
         id="tspan1579-5"
         x="918.69257"
         y="72.257828"
         style="stroke-width:0.207146">0</tspan></text><rect
       style="fill:#ff2424;fill-opacity:0.460572;stroke-width:0.600373"
       id="rect1773"
       width="26"
       height="38"
       x="852"
       y="87" /><rect
       style="fill:#ff2424;fill-opacity:0.460572;stroke-width:0.600373"
       id="rect1775"
       width="22"
       height="26.878048"
       x="887"
       y="87" /><rect
       style="fill:#ff2424;fill-opacity:0.460572;stroke-width:0.623622"
       id="rect1777"
       width="25"
       height="40"
       x="921"
       y="73" /><rect
       style="fill:#ff2424;fill-opacity:0.460572;stroke-width:0.701863"
       id="rect1779"
       width="19"
       height="40"
       x="961"
       y="73" /><rect
       style="fill:#ff2424;fill-opacity:0.460572;stroke-width:0.623622"
       id="rect1781"
       width="25"
       height="41"
       x="995"
       y="72" /><rect
       style="fill:#ff2424;fill-opacity:0.460572;stroke-width:0.623622"
       id="rect1867"
       width="25"
       height="41"
       x="1032"
       y="72" /><rect
       style="fill:#ff2424;fill-opacity:0.460572;stroke-width:0.623622"
       id="rect1869"
       width="28"
       height="40"
       x="1068"
       y="73" /><rect
       style="fill:#ff2424;fill-opacity:0.460572;stroke-width:0.623622"
       id="rect1871"
       width="24"
       height="40"
       x="1107"
       y="73" /><rect
       style="fill:#ff2424;fill-opacity:0.460572;stroke-width:0.623622"
       id="rect1873"
       width="26"
       height="40"
       x="1143"
       y="73" /><rect
       style="fill:#ff2424;fill-opacity:0.460572;stroke-width:0.623622"
       id="rect1875"
       width="25"
       height="40"
       x="1181"
       y="73" /><rect
       style="fill:#ff2424;fill-opacity:0.460572;stroke-width:0.623622"
       id="rect1877"
       width="26"
       height="40"
       x="1216"
       y="73" /><rect
       style="fill:#ff2424;fill-opacity:0.460572;stroke-width:0.623622"
       id="rect1879"
       width="25"
       height="40"
       x="1255"
       y="73" /><path
       id="rect2058"
       style="fill:#000000;fill-opacity:0.997577;stroke-width:0.623622"
       d="m 301,5 v 40 h 5 V 27.5 h 19 V 45 h 5 V 5 h -5 V 22.5 H 306 V 5 Z" /><path
       id="rect2531-9"
       style="fill:#000000;fill-opacity:0.997577;stroke-width:1.76386"
       d="m 348,5 v 40 h 5 V 5 Z" /><path
       id="rect2531-9-1"
       style="fill:#000000;fill-opacity:0.997577;stroke-width:1.47575"
       d="m 385,5 v 27 c 0,5.09902 -3.13401,8 -7,8 -3.86599,0 -7,-3.134007 -7,-7 h -5 c 0,6.627417 5.37258,12 12,12 6.62742,0 12,-5 12,-13 V 5 Z"
       sodipodi:nodetypes="ccscccccc" /><path
       id="rect3044"
       style="fill:#000000;fill-opacity:0.997577;stroke-width:0.628054"
       d="m 406,5 v 40 h 5.07132 V 27.537109 L 416.67948,22.007812 430.14422,45 H 436 L 420.39184,18.347656 433.9279,5 h -7.17116 L 411.07132,20.462891 V 5 Z" /><path
       id="rect3044-6"
       style="fill:#000000;fill-opacity:0.997577;stroke-width:0.623622"
       d="m 747.22071,-79.75328 v 40 h 5 v -17.46289 l 5.5293,-5.5293 13.27539,22.99219 h 5.77343 l -15.38867,-26.65234 13.34571,-13.34766 h -7.07032 l -15.46484,15.46289 v -15.46289 z" /><path
       id="rect3044-3"
       style="fill:#000000;fill-opacity:0.997577;stroke-width:0.623622"
       d="m 435,-80 v 40 h 5 v -17.46289 l 5.52929,-5.5293 L 458.80468,-40 h 5.77344 L 449.18945,-66.65234 462.53516,-80 h -7.07032 L 440,-64.53711 V -80 Z" /><path
       id="rect3488"
       style="fill:#000000;fill-opacity:0.997577;stroke-width:0.623622"
       d="m 450,5 v 40 h 25 V 40 H 455 V 5 Z"
       sodipodi:nodetypes="ccccccc" /><path
       id="rect6861"
       style="fill:#000000;fill-opacity:0.997577;stroke-width:0.623622"
       d="m 543,5 v 40 h 5 V 18.591797 l 20,19.886719 V 45 h 5 V 5 h -5 V 31.408203 L 548,11.521484 V 5 Z"
       sodipodi:nodetypes="ccccccccccccc" /><path
       id="rect6861-5"
       style="fill:#000000;fill-opacity:0.997577;stroke-width:0.623622"
       d="m 548,-80 v 40 h 5 v -26.4082 l 20,19.886716 V -40 h 5 v -40 h -5 v 26.408203 L 553,-73.47852 V -80 Z"
       sodipodi:nodetypes="ccccccccccccc" /><path
       id="rect7118"
       style="fill:#000000;fill-opacity:0.997577;stroke-width:0.623622"
       d="m 604,5 c -8.30999,0 -15,6.690008 -15,15 v 10 c 0,8.309992 6.69001,15 15,15 8.30999,0 15,-6.690008 15,-15 V 20 C 619,11.690008 612.30999,5 604,5 Z m 0,5 c 5.53999,0 10,5.017507 10,11.25 v 7.5 C 614,34.982493 609.53999,40 604,40 598.46001,40 594,34.982493 594,28.75 v -7.5 C 594,15.017507 598.46001,10 604,10 Z" /><path
       id="rect7118-8"
       style="fill:#000000;fill-opacity:0.997577;stroke-width:0.623622"
       d="m 233,-125 c -8.30999,0 -15,6.69001 -15,15 v 10 c 0,8.30999 6.69001,15 15,15 8.30999,0 15,-6.69001 15,-15 v -10 c 0,-8.30999 -6.69001,-15 -15,-15 z m 0,5 c 5.53999,0 10,5.01751 10,11.25 v 7.5 c 0,6.23249 -4.46001,11.25 -10,11.25 -5.53999,0 -10,-5.01751 -10,-11.25 v -7.5 c 0,-6.23249 4.46001,-11.25 10,-11.25 z" /><path
       id="rect7118-2"
       style="fill:#000000;fill-opacity:0.997577;stroke-width:0.6245"
       d="m 690,5 c -8.30998,0 -15,6.708872 -15,15.042278 v 10.028185 c 0,8.333405 6.69002,15.042277 15,15.042277 2.8846,0 5.57333,-0.809141 7.85547,-2.213251 L 700.94727,46 l 3.53711,-3.545121 -2.85547,-2.863516 C 703.73721,37.001505 705,33.689599 705,30.070463 V 20.042278 C 705,11.708872 698.30998,5 690,5 Z m 0,5.014093 c 5.53998,0 10,5.031654 10,11.281708 v 7.521139 c 0,2.645962 -0.80425,5.068499 -2.14648,6.988391 l -3.40821,-3.417809 -3.53515,3.547078 3.17773,3.186692 c -1.24679,0.627512 -2.62987,0.977356 -4.08789,0.977356 -5.53998,0 -10,-5.031655 -10,-11.281708 v -7.521139 c 0,-6.250054 4.46002,-11.281708 10,-11.281708 z" /><path
       id="rect7282"
       style="fill:#000000;fill-opacity:1;stroke-width:0.623622"
       d="m 634,5 v 20 20 h 5 V 25 c 0,0 9.33333,0 14,0 5.53997,0 10,-4.460018 10,-10 0,-5.5399835 -4.46003,-10 -10,-10 -4.66667,0 -14,0 -14,0 z m 5,5 c 0,0 8.29948,0 12.44922,0 3.62965,0 6.55078,2.230009 6.55078,5 0,2.769991 -2.92113,5 -6.55078,5 C 647.29948,20 639,20 639,20 Z"
       sodipodi:nodetypes="ccccccscccccsccc" /><path
       id="rect7282-7"
       style="fill:#000000;fill-opacity:1;stroke-width:0.623622"
       d="m 258,-125 v 20 20 h 5 v -20 c 0,0 9.33333,0 14,0 5.53997,0 10,-4.46002 10,-10 0,-5.53998 -4.46003,-10 -10,-10 -4.66667,0 -14,0 -14,0 z m 5,5 c 0,0 8.29948,0 12.44922,0 3.62965,0 6.55078,2.23001 6.55078,5 0,2.76999 -2.92113,5 -6.55078,5 -4.14974,0 -12.44922,0 -12.44922,0 z"
       sodipodi:nodetypes="ccccccscccccsccc" /><path
       id="rect7282-0"
       style="fill:#000000;fill-opacity:1;stroke-width:0.623622"
       d="m 720,5 v 20 20 h 5 V 25 h 8.67773 l 9.67579,20 h 5.55468 L 739.23047,24.994141 C 744.66266,24.871941 749,20.462597 749,15 749,9.460022 744.53996,5 739,5 h -14 z m 5,5 h 12.44922 C 741.07887,10 744,12.230012 744,15 c 0,2.769988 -2.92113,5 -6.55078,5 H 725 Z" /><path
       id="path8593"
       style="fill:#000000;fill-opacity:1;stroke-width:0.66668"
       d="M 776,5 C 767.71574,5 761,10.116752 761,16.428571 761,22.74039 767.71574,28 776,28 c 5.52284,0 10,2.415519 10,5.571429 C 786,36.727338 781.52284,40 776,40 c -5.52284,0 -10,-3.272662 -10,-6.428571 h -5 C 761,39.883247 767.71574,45 776,45 784.28426,45 791,39.883247 791,33.571429 791,27.25961 784.28426,23 776,23 770.47716,23 766,19.584481 766,16.428571 766,13.272662 770.47716,10 776,10 c 5.52284,0 10,3.272662 10,6.428571 h 5 C 791,10.116752 784.28426,5 776,5 Z"
       sodipodi:nodetypes="sssssccsssssccs" /><path
       id="rect9745"
       style="fill:#000000;fill-opacity:1;stroke-width:0.623622"
       d="m 801,5 v 5 h 12 v 35 h 5 V 10 h 12 V 5 Z" /><path
       id="rect9745-0"
       style="fill:#000000;fill-opacity:1;stroke-width:0.623622"
       d="m 364,-125 v 5 h 12 v 35 h 5 v -35 h 12 v -5 z" /><path
       id="rect9962"
       style="fill:#000000;fill-opacity:1;stroke-width:0.623622"
       d="m 842,5 v 25 c 0,8.309984 6.69002,15 15,15 8.30998,0 15,-6.690016 15,-15 V 5 h -5 v 5 1 17.75 C 867,34.982482 862.53997,40 857,40 851.46003,40 847,34.982482 847,28.75 V 11 10 5 Z" /><path
       id="rect9962-5"
       style="fill:#000000;fill-opacity:1;stroke-width:0.623622"
       d="m 628,-80 v 25 c 0,8.309984 6.69002,15 15,15 8.30998,0 15,-6.690016 15,-15 v -25 h -5 v 5 1 17.75 c 0,6.232482 -4.46003,11.25 -10,11.25 -5.53997,0 -10,-5.017518 -10,-11.25 V -74 v -1 -5 z" /><path
       id="rect4416-8"
       style="fill:#000000;fill-opacity:1;stroke-width:0.865037"
       d="M 903.06361,45 916.98045,5 911.81011,5.0007892 900.48045,37.007526 889.19579,5.0007892 883.98045,5 897.89729,45 Z"
       sodipodi:nodetypes="cccccccc" /><path
       id="rect4416-8-6"
       style="fill:#000000;fill-opacity:1;stroke-width:0.865197"
       d="M 489.09447,-40.008913 503.01955,-80 l -5.1734,7.9e-4 -11.33637,31.9996 -11.29135,-31.9996 L 470,-80 l 13.92508,39.991087 z"
       sodipodi:nodetypes="cccccccc" /><path
       id="rect4416-8-9"
       style="fill:#000000;fill-opacity:1;stroke-width:0.775647"
       d="m 928,5 11.18945,40 h 4.15235 L 952.5,13.001954 961.6582,45 h 4.15235 L 977,5 h -5 L 963.73438,36.00757 955,5 h -5 L 941.26562,36.00757 933,5 Z"
       sodipodi:nodetypes="cccccccccccccc" /><path
       id="rect11394"
       style="fill:#000000;fill-opacity:1;stroke-width:0.744042"
       d="m 984.99376,5.0000014 12.98031,19.5429626 -13.33897,20.457256 5.96434,-2e-6 10.38346,-15.925775 10.5766,15.925773 6.0756,-3e-6 -13.6437,-20.542958 12.6857,-19.4570412 -5.9624,1.08e-5 -9.7318,14.9257704 -9.91324,-14.9257779 z" /><path
       id="rect11394-6"
       style="fill:#000000;fill-opacity:1;stroke-width:0.747754"
       d="m 1022.9941,5 13.6265,20.3125 V 45 h 5.0446 V 25.242188 L 1054.9941,5 h -6.022 L 1039.1429,19.925781 1029.1305,5 Z"
       sodipodi:nodetypes="cccccccccc" /><path
       id="rect11920"
       style="fill:#000000;fill-opacity:1;stroke-width:0.623622"
       d="m 1063,5 v 5 h 20.9453 L 1063,39.658203 V 45 h 2.3496 H 1090 v -5 h -21.1211 L 1090,10.091797 V 5 h -2.5254 z" /><rect
       style="fill:#000000;fill-opacity:1;stroke-width:0.748346"
       id="rect12852"
       width="6"
       height="6"
       x="1128"
       y="39" /><rect
       style="fill:#000000;fill-opacity:1;stroke-width:0.748346"
       id="rect12852-5"
       width="6"
       height="6"
       x="1106"
       y="39" /><rect
       style="fill:#000000;fill-opacity:1;stroke-width:0.748346"
       id="rect12852-5-0"
       width="6"
       height="6"
       x="1106"
       y="25" /><rect
       style="fill:#000000;fill-opacity:1;stroke-width:1.08014"
       id="rect12852-4"
       width="15"
       height="5"
       x="1173"
       y="28" /><path
       id="rect12852-9"
       style="fill:#000000;fill-opacity:1;stroke-width:0.748346"
       d="m 1151,39 v 8 h 6 v -8 z m 0,8 v 2 3 h 3 c 1.662,0 3,-1.338002 3,-3 v -5 z"
       sodipodi:nodetypes="ccccccccsscc" /><path
       id="rect9745-3"
       style="fill:#000000;fill-opacity:1;stroke-width:0.623622"
       d="m 588,-80 v 5 h 12 v 35 h 5 v -35 h 12 v -5 z" /><rect
       style="fill:#000000;fill-opacity:1;stroke-width:0.623622"
       id="rect669"
       width="19"
       height="5"
       x="514"
       y="-51" /><path
       id="rect4416-7-27"
       style="fill:#000000;fill-opacity:1;stroke-width:0.890517"
       d="M 520.75204,-139.99554 506,-100.00446 l 5.48063,-7.9e-4 12.0096,-31.9996 11.96189,31.9996 5.52834,7.9e-4 -14.75204,-39.99108 z"
       sodipodi:nodetypes="cccccccc" /><path
       id="rect4416-7-2-0"
       style="fill:#000000;fill-opacity:1;stroke-width:0.890517"
       d="M 728.75204,-139.99554 714,-100.00446 l 5.48063,-7.8e-4 12.0096,-31.99961 11.9619,31.99961 5.52833,7.8e-4 -14.75203,-39.99108 z"
       sodipodi:nodetypes="cccccccc" /><path
       id="rect3866-9-9"
       style="fill:#000000;fill-opacity:0.997577;stroke-width:0.623622"
       d="m 669,-140.00446 v 40 h 5 v -31 h 0.13086 l 10.4668,15.45313 h 4.80468 l 10.4668,-15.45313 H 700 v 31 h 5 v -40 h -3 -2 -0.13086 l -12.86914,19 -12.86914,-19 H 674 Z" /><path
       id="rect3044-3-3"
       style="fill:#000000;fill-opacity:0.997577;stroke-width:0.623622"
       d="m 435,-140.00446 v 40 h 5 v -17.46289 l 5.52929,-5.5293 13.27539,22.99219 h 5.77344 l -15.38867,-26.65234 13.34571,-13.34766 h -7.07032 L 440,-124.54157 v -15.46289 z" /><path
       id="rect6861-5-6"
       style="fill:#000000;fill-opacity:0.997577;stroke-width:0.623622"
       d="m 548,-140.00446 v 40 h 5 v -26.4082 l 20,19.88672 v 6.52148 h 5 v -40 h -5 v 26.40821 l -20,-19.88673 v -6.52148 z"
       sodipodi:nodetypes="ccccccccccccc" /><path
       id="rect9962-5-0"
       style="fill:#000000;fill-opacity:1;stroke-width:0.623622"
       d="m 628,-140.00446 v 25 c 0,8.30999 6.69002,15 15,15 8.30998,0 15,-6.69001 15,-15 v -25 h -5 v 5 1 17.75 c 0,6.23248 -4.46003,11.25 -10,11.25 -5.53997,0 -10,-5.01752 -10,-11.25 v -17.75 -1 -5 z" /><path
       id="rect4416-8-6-6"
       style="fill:#000000;fill-opacity:1;stroke-width:0.865197"
       d="m 489.09447,-100.01337 13.92508,-39.99109 -5.1734,7.9e-4 -11.33637,31.9996 -11.29135,-31.9996 -5.21843,-7.9e-4 13.92508,39.99109 z"
       sodipodi:nodetypes="cccccccc" /><path
       id="rect9745-3-2"
       style="fill:#000000;fill-opacity:1;stroke-width:0.623622"
       d="m 588,-140.00446 v 5 h 12 v 35 h 5 v -35 h 12 v -5 z" /><path
       id="rect12933"
       style="fill:#000000;fill-opacity:1;stroke-width:0.623622"
       d="M 1214,0.04492187 C 1207.8239,0.55038043 1203,5.6891939 1203,12 v 27 c 0,6.310806 4.8239,11.44962 11,11.955078 V 45.753906 C 1210.5137,44.88963 1207.9414,41.760933 1207.9414,38 V 13 c 0,-3.7609325 2.5723,-6.8896299 6.0586,-7.7539062 z m 14,0 V 5.2460938 c 3.4863,0.8642763 6.0586,3.9929737 6.0586,7.7539062 v 25 c 0,3.760933 -2.5723,6.88963 -6.0586,7.753906 v 5.201172 C 1234.1761,50.44962 1239,45.310806 1239,39 V 12 c 0,-6.3108061 -4.8239,-11.44961957 -11,-11.95507813 z" /><path
       id="rect1556"
       style="fill:#000000;stroke-width:0.518122"
       d="M 13.285156,87.082443 C 8.89717,86.984843 4.8022216,89.132361 2.6074219,92.682179 l 4.34375,2.342038 C 8.1972299,93.002619 10.502301,91.754235 13,91.748281 c 3.865994,0 7.000001,1.844276 7,5.454717 v 1.590543 c -1.974581,-1.614123 -4.67777,-2.523996 -7.5,-2.524441 -5.7989879,0 -10.4999972,3.76308 -10.5,8.40507 -2.7e-6,4.642 4.7010082,8.40508 10.5,8.40508 2.827223,-0.008 5.531133,-0.92762 7.5,-2.5518 v 2.5518 h 5 V 97.202998 c 2.68e-4,-5.072581 -3.647939,-8.430255 -8.894531,-9.742983 -0.920713,-0.230007 -1.867489,-0.356758 -2.820313,-0.377572 z M 13,100.93859 c 3.313707,0 5.999998,1.67247 6,3.73558 6e-6,2.06311 -2.686287,3.7356 -6,3.7356 -3.3137131,0 -6.0000065,-1.67249 -6,-3.7356 2.4e-6,-2.06311 2.6862932,-3.73558 6,-3.73558 z"
       sodipodi:nodetypes="ccccsccscccccccsssss" /><path
       id="rect1556-7"
       style="fill:#000000;stroke-width:0.517332"
       d="m 789.50587,-66.75011 a 12,11.172608 0 0 0 -10.67774,5.58266 l 4.34375,2.3349 a 7,6.5173548 0 0 1 6.04883,-3.26595 7,6.5173548 0 0 1 7,6.51736 v 1.58569 a 10.5,8.3794561 0 0 0 -7.5,-2.51674 10.5,8.3794561 0 0 0 -10.5,8.37945 10.5,8.3794561 0 0 0 10.5,8.37946 10.5,8.3794561 0 0 0 7.5,-2.54402 v 2.54402 h 5 v -15.82786 a 12,11.172608 0 0 0 -8.89453,-10.79255 12,11.172608 0 0 0 -2.82031,-0.37642 z m -0.28516,14.89317 a 6,3.7242027 0 0 1 6,3.7242 6,3.7242027 0 0 1 -6,3.72421 6,3.7242027 0 0 1 -6,-3.72421 6,3.7242027 0 0 1 6,-3.7242 z" /><path
       id="rect11314"
       style="fill:#000000;fill-opacity:1;stroke-width:0.623622"
       d="m 40,72 v 41 h 5 v -3.33008 A 12,13 0 0 0 53,113 12,13 0 0 0 65,100 12,13 0 0 0 53,87 12,13 0 0 0 45,90.330078 V 72 Z m 13,20 a 7,8 0 0 1 7,8 7,8 0 0 1 -7,8 7,8 0 0 1 -7,-8 7,8 0 0 1 7,-8 z" /><path
       id="rect11314-3"
       style="fill:#000000;fill-opacity:1;stroke-width:0.623622"
       d="M 530 86.999446 L 530 124.99945 L 535 124.99945 L 535 109.66937 A 12 13 0 0 0 543 112.99945 A 12 13 0 0 0 555 99.999446 A 12 13 0 0 0 543 86.999446 A 12 13 0 0 0 535 90.329524 L 535 86.999446 L 530 86.999446 z M 543 91.999446 A 7 8 0 0 1 550 99.999446 A 7 8 0 0 1 543 107.99945 A 7 8 0 0 1 536 99.999446 A 7 8 0 0 1 543 91.999446 z " /><path
       id="rect11314-3-7"
       style="fill:#000000;fill-opacity:1;stroke-width:0.623622"
       d="M 591,86.999996 V 125 h -5 V 109.66992 A 12,13 0 0 1 578,113 12,13 0 0 1 566,99.999996 a 12,13 0 0 1 12,-13 12,13 0 0 1 8,3.330078 v -3.330078 z m -13,5 a 7,8 0 0 0 -7,8 7,8 0 0 0 7,8.000004 7,8 0 0 0 7,-8.000004 7,8 0 0 0 -7,-8 z" /><path
       id="ellipse18947"
       style="fill:#000000;fill-opacity:1;stroke-width:0.61814"
       d="M 88.789934,87 A 11.789934,13 0 0 0 85.738328,87.443359 11.789934,13 0 0 0 77,100 11.789934,13 0 0 0 85.738328,112.55664 11.789934,13 0 0 0 99,106.5 l -4.337125,-2.76172 A 6.6638756,8 0 0 1 88.789934,108 a 6.6638756,8 0 0 1 -6.663876,-8 6.6638756,8 0 0 1 6.663876,-8 6.6638756,8 0 0 1 5.886958,4.251953 L 99,93.5 A 11.789934,13 0 0 0 88.789934,87 Z" /><path
       id="path29048-6"
       style="fill:#000000;fill-opacity:1;stroke-width:0.623622"
       d="M 502 86.999446 A 12 13 0 0 0 490 99.999446 A 12 13 0 0 0 502 112.99945 A 12 13 0 0 0 514 99.999446 A 12 13 0 0 0 502 86.999446 z M 502 91.999446 A 6.999999 8 0 0 1 509 99.999446 A 6.999999 8 0 0 1 502 107.99945 A 6.999999 8 0 0 1 495 99.999446 A 6.999999 8 0 0 1 502 91.999446 z " /><path
       id="path29048-6-6"
       style="fill:#000000;fill-opacity:1;stroke-width:0.623622"
       d="m 995.22071,-70.75328 a 12,13 0 0 0 -12,13 12,13 0 0 0 12,13 12,13 0 0 0 11.99999,-13 12,13 0 0 0 -11.99999,-13 z m 0,5 a 6.999999,8 0 0 1 6.99999,8 6.999999,8 0 0 1 -6.99999,8 6.999999,8 0 0 1 -7,-8 6.999999,8 0 0 1 7,-8 z" /><path
       id="path29048-6-1"
       style="fill:#000000;fill-opacity:1;stroke-width:0.623622"
       d="m 1022.2207,-70.75328 a 12,13 0 0 0 -12,13 12,13 0 0 0 12,13 12,13 0 0 0 12,-13 12,13 0 0 0 -12,-13 z m 0,5 a 6.999999,8 0 0 1 7,8 6.999999,8 0 0 1 -7,8 6.999999,8 0 0 1 -7,-8 6.999999,8 0 0 1 7,-8 z" /><path
       id="ellipse18947-3"
       style="fill:#000000;fill-opacity:1;stroke-width:0.618131"
       d="m 160.78994,87 c -1.0304,1.15e-4 -2.05634,0.149166 -3.05161,0.443346 -5.15418,1.522835 -8.73819,6.672757 -8.73833,12.556261 1.4e-4,5.883503 3.58415,11.033423 8.73833,12.556263 5.15422,1.52278 10.59348,-0.96126 13.26167,-6.05646 l -4.33712,-2.76164 c -1.15105,2.61442 -3.40964,4.25332 -5.87294,4.26159 -2.97954,-0.014 -5.58923,-2.40078 -6.39156,-5.84552 1.06415,0.23852 2.15842,0.3625 3.25785,0.36913 6.5201,-0.2823 13.04899,-3.91947 12.47259,-9.241955 C 169.6502,88.861375 165.00196,87.000126 160.78994,87 Z m 0,4.999849 c 1.54933,0.0068 3.04827,0.661533 4.23901,1.851506 -1.36715,2.242112 -4.23053,3.668133 -7.37272,3.671765 -1.04304,-0.0048 -2.07534,-0.167177 -3.0416,-0.478502 1.00614,-3.038626 3.45147,-5.036285 6.17531,-5.044769 z"
       sodipodi:nodetypes="cccccccccscccccc" /><path
       id="ellipse18947-3-9"
       style="fill:#000000;fill-opacity:1;stroke-width:0.610492"
       d="m 1090.4551,-70.90758 c -1.0051,1.2e-4 -2.0058,0.14917 -2.9766,0.44336 -5.0274,1.52288 -8.5233,6.67296 -8.5234,12.55664 1e-4,5.88368 3.496,11.03376 8.5234,12.55664 5.0275,1.52283 10.333,-0.96129 12.9356,-6.05664 l -4.2305,-2.76172 c -1.1227,2.6145 -3.3258,4.25345 -5.7285,4.26172 -2.9063,-0.014 -5.4518,-2.40086 -6.2344,-5.8457 1.038,0.23853 2.1053,0.36251 3.1777,0.36914 6.3598,-0.28231 12.7281,-3.91959 12.1659,-9.24223 -0.4668,-4.41978 -5.0008,-6.28108 -9.1092,-6.28121 z m 0,5 c 1.5112,0.007 2.9733,0.66156 4.1348,1.85156 -1.3336,2.24219 -4.1265,3.66825 -7.1915,3.67188 -1.0173,-0.005 -2.0243,-0.16718 -2.9668,-0.47852 0.9814,-3.03871 3.3666,-5.03643 6.0235,-5.04492 z"
       sodipodi:nodetypes="cccccccccscccccc" /><path
       id="rect11314-6"
       style="fill:#000000;fill-opacity:1;stroke-width:0.623622"
       d="m 135,72 v 41 h -5 v -3.33008 A 12,13 0 0 1 122,113 a 12,13 0 0 1 -12,-13 12,13 0 0 1 12,-13 12,13 0 0 1 8,3.330078 V 72 Z m -13,20 a 7,8 0 0 0 -7,8 7,8 0 0 0 7,8 7,8 0 0 0 7,-8 7,8 0 0 0 -7,-8 z" /><path
       id="rect22815"
       style="fill:#000000;fill-opacity:1;stroke-width:0.573338"
       d="M 194.5 70.999446 A 6.5 6.5 0 0 0 188 77.499446 L 188 89.999446 L 185 89.999446 L 185 94.999446 L 188 94.999446 L 188 112.99945 L 193 112.99945 L 193 94.999446 L 198 94.999446 L 198 89.999446 L 193 89.999446 L 193 77.499446 A 1.5 1.5 0 0 1 194.5 75.999446 A 1.5 1.5 0 0 1 196 77.499446 L 201 77.499446 A 6.5 6.5 0 0 0 194.5 70.999446 z " /><path
       id="rect22815-0"
       style="fill:#000000;fill-opacity:1;stroke-width:0.573338"
       d="m 817.22071,-81.75328 a 6.5,6.5 0 0 0 -6.5,6.5 v 12.5 h -3 v 5 h 3 v 18 h 5 v -18 h 5 v -5 h -5 v -12.5 a 1.5,1.5 0 0 1 1.5,-1.5 1.5,1.5 0 0 1 1.5,1.5 h 5 a 6.5,6.5 0 0 0 -6.5,-6.5 z" /><path
       id="rect22815-3"
       style="fill:#000000;fill-opacity:1;stroke-width:0.576412"
       d="m 312,75.999446 v 5.053763 h 5 v -5.053763 z m 0,11.118279 v 29.311825 c 0,0.83734 -0.67157,1.51613 -1.5,1.51613 -0.82843,0 -1.5,-0.67879 -1.5,-1.51613 h -5 c 0,3.62844 2.91015,6.5699 6.5,6.5699 3.58985,0 6.5,-2.94146 6.5,-6.5699 V 87.117725 Z" /><ellipse
       style="fill:#858585;fill-opacity:1;stroke-width:0.623622"
       id="path29048"
       cx="218"
       cy="65"
       rx="12"
       ry="13" /><path
       id="path29048-59"
       style="fill:#000000;fill-opacity:1;stroke-width:0.472885"
       d="m 646.5,86.999446 a 11.500001,7.7999988 0 0 0 -8.13086,2.285156 11.500001,7.7999988 0 0 0 -2.49414,8.50078 11.500001,7.7999988 0 0 0 10.625,4.814068 6.499999,2.5999996 0 0 1 6.5,2.6 6.499999,2.5999996 0 0 1 -6.5,2.6 6.499999,2.5999996 0 0 1 -6.5,-2.6 h -5 a 11.500001,7.7999988 0 0 0 7.09961,7.20484 11.500001,7.7999988 0 0 0 4.40039,0.59516 11.500001,7.7999988 0 0 0 8.13086,-2.28517 11.500001,7.7999988 0 0 0 2.49414,-8.50077 11.500001,7.7999988 0 0 0 -10.625,-4.814066 6.499999,2.5999996 0 0 1 -6.5,-2.599999 6.499999,2.5999996 0 0 1 6.5,-2.6 6.499999,2.5999996 0 0 1 6.5,2.6 h 5 A 11.500001,7.7999988 0 0 0 650.90039,87.594602 11.500001,7.7999988 0 0 0 646.5,86.999446 Z" /><path
       id="path29048-5"
       style="fill:#000000;fill-opacity:1;stroke-width:0.610492"
       d="M 453 86.999446 L 453 112.99945 L 458 112.99945 L 458 99.999446 A 7.000001 8 0 0 1 465 91.999446 A 7.000001 8 0 0 1 472 99.999446 L 472 112.99945 L 477 112.99945 L 477 99.999446 A 11.499999 13 0 0 0 465.5 86.999446 A 11.499999 13 0 0 0 458 90.147884 L 458 86.999446 L 453 86.999446 z " /><path
       id="path29048-5-1"
       style="fill:#000000;fill-opacity:1;stroke-width:0.610492"
       d="M 722,113 V 86.999992 h -5 V 100 a 7.000001,8 0 0 1 -7,8 7.000001,8 0 0 1 -7,-8 V 86.999992 h -5 V 100 a 11.499999,13 0 0 0 11.5,13 11.499999,13 0 0 0 7.5,-3.14844 V 113 Z" /><path
       id="path29048-5-02"
       style="fill:#000000;fill-opacity:1;stroke-width:0.610492"
       d="m 251,72.999446 c 0,0 0,26.666669 0,40.000004 h 5 V 99.999446 c 0,-4.418278 3.13401,-7.999999 7,-8 3.86599,10e-7 7,3.581722 7,8 v 13.000004 h 5 V 99.999446 c 0,-7.179702 -5.14873,-13.000001 -11.5,-13 -2.75277,9.29e-4 -5.41392,1.118059 -7.5,3.148438 0,-5.716146 0,-17.148438 0,-17.148438 z"
       sodipodi:nodetypes="cccsssccscccc" /><path
       id="path29048-5-0"
       style="fill:#000000;fill-opacity:1;stroke-width:0.610492"
       d="M 397 86.999446 L 397 112.99945 L 402 112.99945 L 402 99.999446 A 7.000001 8 0 0 1 409 91.999446 A 7.000001 8 0 0 1 416 99.999446 L 416 112.99945 L 421 112.99945 L 421 99.999446 C 421 95.581173 424.13401 91.999447 428 91.999446 C 431.86599 91.999447 435 95.581173 435 99.999446 L 435 112.99945 L 440 112.99945 L 440 99.999446 C 440 92.819751 434.85126 86.999446 428 86.999446 C 424.05429 86.999446 420.67565 88.932086 418.51758 91.940853 A 11.499999 13 0 0 0 409.5 86.999446 A 11.499999 13 0 0 0 402 90.147884 L 402 86.999446 L 397 86.999446 z " /><path
       id="path29048-0"
       style="fill:#000000;fill-opacity:1;stroke-width:0.623622"
       d="M 224 86.999446 A 12 13 0 0 0 212 99.999446 A 12 13 0 0 0 224 112.99945 A 12 13 0 0 0 232 109.67132 L 232 112.99945 A 7.000001 7.5833344 0 0 1 225 120.58343 A 7.000001 7.5833344 0 0 1 218.24805 114.96038 L 213.4082 116.36468 A 12 13 0 0 0 226.56641 125.88812 A 12 13 0 0 0 237 112.99945 L 237 86.999446 L 232 86.999446 L 232 90.313899 A 12 13 0 0 0 224 86.999446 z M 224 91.999446 A 7 8 0 0 1 231 99.999446 A 7 8 0 0 1 224 107.99945 A 7 8 0 0 1 217 99.999446 A 7 8 0 0 1 224 91.999446 z " /><path
       id="path29048-0-2-8"
       style="fill:#000000;fill-opacity:1;stroke-width:0.623622"
       d="m 1049.2207,-70.75328 a 12,13 0 0 0 -12,13 12,13 0 0 0 12,13 12,13 0 0 0 8,-3.32813 v 3.32813 a 7.000001,7.5833344 0 0 1 -7,7.58398 7.000001,7.5833344 0 0 1 -6.7519,-5.62305 l -4.8399,1.4043 a 12,13 0 0 0 13.1582,9.52344 12,13 0 0 0 10.4336,-12.88867 v -26 h -5 v 3.31445 a 12,13 0 0 0 -8,-3.31445 z m 0,5 a 7,8 0 0 1 7,8 7,8 0 0 1 -7,8 7,8 0 0 1 -7,-8 7,8 0 0 1 7,-8 z" /><path
       id="rect1444"
       style="fill:#000000;fill-opacity:1;stroke-width:0.539037"
       d="M 291 75.999446 L 291 80.999446 L 296 80.999446 L 296 75.999446 L 291 75.999446 z M 291 86.999446 L 291 112.99945 L 296 112.99945 L 296 86.999446 L 291 86.999446 z " /><path
       id="rect2690"
       style="fill:#000000;fill-opacity:1;stroke-width:0.624063"
       d="m 334,72.999446 v 40.000004 h 5.00707 v -8.46289 l 3.50104,-3.49805 8.78194,11.96094 H 357.5 L 346.0913,97.462337 356.56704,86.999446 h -7.08032 L 339.00707,97.46429 V 72.999446 Z" /><path
       id="rect1556-7-6"
       style="fill:#000000;stroke-width:0.517332"
       d="m 868.50587,-66.75011 a 12,11.172608 0 0 0 -10.67774,5.58266 l 4.34375,2.3349 a 7,6.5173548 0 0 1 6.04883,-3.26595 7,6.5173548 0 0 1 7,6.51736 v 1.58569 a 10.5,8.3794561 0 0 0 -7.5,-2.51674 10.5,8.3794561 0 0 0 -10.5,8.37945 10.5,8.3794561 0 0 0 10.5,8.37946 10.5,8.3794561 0 0 0 7.5,-2.54402 v 2.54402 h 5 v -15.82786 a 12,11.172608 0 0 0 -8.89453,-10.79255 12,11.172608 0 0 0 -2.82031,-0.37642 z m -0.28516,14.89317 a 6,3.7242027 0 0 1 6,3.7242 6,3.7242027 0 0 1 -6,3.72421 6,3.7242027 0 0 1 -6,-3.72421 6,3.7242027 0 0 1 6,-3.7242 z" /><path
       id="rect2690-2-0"
       style="fill:#000000;fill-opacity:1;stroke-width:0.623622"
       d="m 828.22071,-79.75328 v 40 h 5 v -11.46289 l 3.49609,-3.49805 10.96875,14.96094 h 6.20118 l -13.5918,-18.53711 10.46094,-10.46289 h -7.07032 l -10.46484,10.46484 v -21.46484 z" /><path
       id="rect3463"
       style="fill:#000000;fill-opacity:1;stroke-width:3.52792"
       d="m 372,74 v 32.49935 c -2.6e-4,1.72465 0.68477,3.37873 1.9043,4.59811 1.21911,1.21845 2.87217,1.9028 4.5957,1.90254 h 3 v -5.0005 h -3 c -0.82843,0 -1.5,-0.67164 -1.5,-1.50015 V 74 Z" /><path
       id="rect3463-3"
       style="fill:#000000;fill-opacity:1;stroke-width:3.52793"
       d="m 674,75.999446 v 11.001161 h -4 v 5.000528 h 4 v 14.497625 c -2.6e-4,1.72466 0.68477,3.37876 1.9043,4.59815 1.21911,1.21845 2.87217,1.9028 4.5957,1.90254 h 3 v -5.00053 h -3 c -0.82843,0 -1.5,-0.67164 -1.5,-1.50016 V 92.001135 h 5 v -5.000528 h -5 V 75.999446 Z" /><path
       id="rect3463-7"
       style="fill:#000000;fill-opacity:1;stroke-width:3.52774"
       d="m 1067.2207,-84.24938 v 32.4961 c -3e-4,1.72448 0.6848,3.37839 1.9043,4.59765 1.2191,1.21833 2.8722,1.90261 4.5957,1.90235 h 3 v -5 h -3 c -0.8284,0 -1.5,-0.67157 -1.5,-1.5 v -32.4961 z" /><path
       id="path29048-5-2"
       style="fill:#000000;fill-opacity:1;stroke-width:0.608553"
       d="m 606,86.999446 v 26.000004 h 4.96829 V 99.999446 a 6.9556005,8 0 0 1 6.95559,-8 6.9556005,8 0 0 1 5.18372,2.667969 L 626.5,90.80804 a 11.427055,13 0 0 0 -8.52759,-3.798828 11.427055,13 0 0 0 -3.92418,0.980469 11.427055,13 0 0 0 -3.07994,2.179687 v -3.169922 z" /><path
       id="rect9438-2"
       style="fill:#000000;fill-opacity:1;stroke:none;stroke-width:0.623622;stroke-dasharray:none;stroke-opacity:1"
       d="m 964.22071,-84.75328 c -8.30997,0 -15,6.69002 -15,15 v 10 c 0,8.30998 6.69003,15 15,15 8.30997,0 15,-6.69002 15,-15 v -5 h -16 v 5 h 10.9375 c -0.54945,5.63985 -4.77326,10 -9.9375,10 -5.53997,0 -10,-5.01752 -10,-11.25 v -7.5 c 0,-6.23248 4.46003,-11.25 10,-11.25 5.16424,0 9.38805,4.36015 9.9375,10 h 5.0625 c 0,-8.30998 -6.69003,-15 -15,-15 z"
       sodipodi:nodetypes="sssssccccssssccs" /><path
       id="rect42418"
       style="stroke-width:0.683691"
       d="M 735 86.999446 L 745 112.99945 L 750 112.99945 L 760 86.999446 L 754.80859 86.999446 L 747.5 105.99945 L 740.19141 86.999446 L 735 86.999446 z " /><path
       id="rect42418-7"
       style="stroke-width:0.683691"
       d="M 767 86.999446 L 777 112.99945 L 782 112.99945 L 788 97.399837 L 794 112.99945 L 799 112.99945 L 809 86.999446 L 803.80859 86.999446 L 796.5 105.99945 L 790.73047 90.999446 L 785.26953 90.999446 L 779.5 105.99945 L 772.19141 86.999446 L 767 86.999446 z " /><path
       id="rect55189"
       style="fill:#000000;fill-opacity:1;stroke-width:0.833556"
       d="m 818.00139,87 9.64919,13.14648 L 817.95703,113 h 6.39315 l 6.45363,-8.55859 6.28024,8.55859 h 6.33468 L 834.01348,100.18554 843.95703,87 l -6.39315,-4e-6 -6.70363,8.890632 -6.52418,-8.890627 z" /><path
       id="rect62311"
       style="fill:#000000;fill-opacity:1;stroke-width:0.696722"
       d="m 852.4043,86.999446 9.15509,20.181644 -7.94869,14.81836 h 5.51836 L 877.9043,86.999446 h -5.51835 l -7.84361,14.621094 -6.63137,-14.621094 z" /><path
       id="rect65357"
       style="fill:#000000;fill-opacity:1;stroke-width:2.92505"
       d="M 887 86.999446 L 887 91.999446 L 902.4668 91.999446 L 887 107.46429 L 887 112.99945 L 888.53516 112.99945 L 909 112.99945 L 909 107.99945 L 893.53516 107.99945 L 909 92.536556 L 909 86.999446 L 907.4668 86.999446 L 887 86.999446 z " /></g></svg>
