<?xml version="1.0" encoding="UTF-8" standalone="no"?>
<!-- Created with Inkscape (http://www.inkscape.org/) -->

<svg
   version="1.1"
   id="svg1472"
   width="1359.647"
   height="266.00446"
   viewBox="0 0 1359.647 266.00446"
   sodipodi:docname="KVANTUMA1451.svg"
   inkscape:version="1.2.2 (b0a8486541, 2022-12-01)"
   xml:space="preserve"
   xmlns:inkscape="http://www.inkscape.org/namespaces/inkscape"
   xmlns:sodipodi="http://sodipodi.sourceforge.net/DTD/sodipodi-0.dtd"
   xmlns="http://www.w3.org/2000/svg"
   xmlns:svg="http://www.w3.org/2000/svg"><defs
     id="defs1476" /><sodipodi:namedview
     id="namedview1474"
     pagecolor="#ffffff"
     bordercolor="#000000"
     borderopacity="0.25"
     inkscape:showpageshadow="2"
     inkscape:pageopacity="0.0"
     inkscape:pagecheckerboard="0"
     inkscape:deskcolor="#d1d1d1"
     showgrid="true"
     showguides="false"
     inkscape:zoom="6.635279"
     inkscape:cx="283.18327"
     inkscape:cy="337.06194"
     inkscape:window-width="1920"
     inkscape:window-height="1131"
     inkscape:window-x="0"
     inkscape:window-y="0"
     inkscape:window-maximized="1"
     inkscape:current-layer="g1478"><inkscape:grid
       type="xygrid"
       id="grid5389"
       originx="50.000001"
       originy="140.00446" /></sodipodi:namedview><g
     inkscape:groupmode="layer"
     inkscape:label="Image"
     id="g1478"
     transform="translate(50,140.00446)"><path
       style="fill:#ffffff;stroke:#ff4040;stroke-width:0.635254;stroke-dasharray:none;stroke-opacity:1"
       d="M -50,4.6855649 H 1309.647"
       id="path2066"
       sodipodi:nodetypes="cc" /><path
       style="fill:#ffffff;stroke:#ff4040;stroke-width:0.635246;stroke-dasharray:none;stroke-opacity:1"
       d="M -50,45.314548 H 1309.6144"
       id="path2066-3"
       sodipodi:nodetypes="cc" /><path
       style="fill:#ffffff;stroke:#ff4040;stroke-width:0.623622;stroke-dasharray:none;stroke-opacity:1"
       d="M -1,83.688189 H 1309.3108"
       id="path2066-3-6"
       sodipodi:nodetypes="cc" /><path
       style="fill:#ffffff;stroke:#ff4040;stroke-width:0.623622;stroke-dasharray:none;stroke-opacity:1"
       d="M -0.71131818,113.3144 H 1309.5995"
       id="path2066-3-6-7"
       sodipodi:nodetypes="cc" /><path
       id="rect4416"
       style="fill:#000000;fill-opacity:1;stroke-width:0.890517"
       d="M 14.769531,5.0097656 0.01757813,45 H 5.4980469 L 7.75,39 h 19.478516 l 2.242187,6 h 5.527344 L 20.246094,5.0097656 Z M 17.507812,13 25.359375,34 H 9.6269531 Z" /><path
       id="rect4416-7"
       style="fill:#000000;fill-opacity:1;stroke-width:0.890517"
       d="M 520.75204,-79.991085 506,-40 l 5.48063,-7.89e-4 12.0096,-31.999605 11.96189,31.999605 5.52834,7.89e-4 -14.75204,-39.991085 z"
       sodipodi:nodetypes="cccccccc" /><path
       id="rect4416-7-2"
       style="fill:#000000;fill-opacity:1;stroke-width:0.890517"
       d="M -30.24796,5.00892 -45,45 l 5.48063,-7.8e-4 12.0096,-31.99961 11.9619,31.99961 L -10.01954,45 -24.77157,5.00892 Z"
       sodipodi:nodetypes="cccccccc" /><path
       id="rect5243"
       style="fill:#000000;fill-opacity:1;stroke:none;stroke-width:0.61779;stroke-dasharray:none;stroke-opacity:1"
       d="m 44.988281,4.9960938 v 19.9804682 0.0098 19.980469 h 20.242188 c 5.904054,0 10.658203,-4.45641 10.658203,-9.994141 0,-5.471447 -2.087274,-9.35628 -7.892961,-9.461228 5.8057,-0.104935 7.892961,-5.047783 7.892961,-10.51924 0,-5.5377306 -4.754149,-9.9960943 -10.658203,-9.9960942 z M 50,10 63.744141,9.9941406 c 4.058093,-0.00173 7.326171,2.6760014 7.326171,6.0019534 C 71.070312,19.322043 68.058093,23 64,23 H 50 Z m 0,18 h 13.95703 c 4.058092,0 7.326173,3.676905 7.326173,7.001953 0,3.325047 -3.268079,6.001953 -7.326172,6.001953 H 50.042969 Z"
       sodipodi:nodetypes="ccccsscssccssscccssscc" /><path
       id="rect7879"
       style="fill:#000000;fill-opacity:1;stroke:none;stroke-width:0.623622;stroke-dasharray:none;stroke-opacity:1"
       d="M 105,5 C 96.690016,5 90,11.690016 90,20 v 10 c 0,8.309984 6.690016,15 15,15 7.6312,0 13.89266,-5.642892 14.86523,-13 h -5.28906 C 113.34213,36.637689 109.53442,40 105,40 99.460012,40 95,34.982488 95,28.75 v -7.5 C 95,15.017512 99.460012,10 105,10 c 4.53442,0 8.34213,3.362311 9.57617,8 h 5.28906 C 118.89266,10.642892 112.6312,5 105,5 Z" /><path
       id="rect7879-2"
       style="fill:#000000;fill-opacity:1;stroke:none;stroke-width:0.623622;stroke-dasharray:none;stroke-opacity:1"
       d="m 343,-125 c -8.30998,0 -15,6.69002 -15,15 v 10 c 0,8.30998 6.69002,15 15,15 7.6312,0 13.89266,-5.64289 14.86523,-13 h -5.28906 c -1.23404,4.63769 -5.04175,8 -9.57617,8 -5.53999,0 -10,-5.01751 -10,-11.25 v -7.5 c 0,-6.23249 4.46001,-11.25 10,-11.25 4.53442,0 8.34213,3.36231 9.57617,8 h 5.28906 C 356.89266,-119.35711 350.6312,-125 343,-125 Z" /><path
       id="rect8364-6"
       style="fill:#000000;fill-opacity:1;stroke:none;stroke-width:1.05027;stroke-dasharray:none;stroke-opacity:1"
       d="m 134,5 v 40 h 15.10938 C 157.35884,45 164,38.358838 164,30.109375 V 19.890625 C 164,11.641162 157.35884,5 149.10938,5 143.86116,4.9999607 138.50077,4.9999428 134,5 Z m 5,5 c 3.00051,-4.12e-5 6.57346,-2.77e-5 10.07227,0 C 154.5719,10 159,14.980886 159,21.167969 v 7.664062 C 159,35.019115 154.5719,40 149.07227,40 H 139 Z" /><path
       id="rect9205"
       style="stroke-width:0.623622"
       d="m 179,5 v 40 h 26 V 40 H 184 V 27.5 h 17 v -5 H 184 V 10 h 21 V 5 Z"
       sodipodi:nodetypes="ccccccccccccc" /><path
       id="rect9205-9"
       style="stroke-width:0.623622"
       d="m 294,-125 v 40 h 26 v -5 h -21 v -12.5 h 17 v -5 H 299 V -120 h 21 v -5 z"
       sodipodi:nodetypes="ccccccccccccc" /><path
       id="rect9205-7"
       style="stroke-width:0.623622"
       d="m 220,5 v 40 h 5 V 27.5 h 17 v -5 H 225 V 10 h 21 V 5 Z"
       sodipodi:nodetypes="ccccccccccc" /><path
       id="rect9438"
       style="fill:#000000;fill-opacity:1;stroke:none;stroke-width:0.623622;stroke-dasharray:none;stroke-opacity:1"
       d="m 271,5 c -8.30997,0 -15,6.690024 -15,15 v 10 c 0,8.309976 6.69003,15 15,15 8.30997,0 15,-6.690024 15,-15 v -5 h -16 v 5 h 10.9375 c -0.54945,5.639855 -4.77326,10 -9.9375,10 -5.53997,0 -10,-5.017518 -10,-11.25 v -7.5 C 261,15.017518 265.46003,10 271,10 c 5.16424,0 9.38805,4.360147 9.9375,10 H 286 C 286,11.690024 279.30997,5 271,5 Z"
       sodipodi:nodetypes="sssssccccssssccs" /><path
       id="rect3866"
       style="fill:#000000;fill-opacity:0.997577;stroke-width:0.623622"
       d="m 490,5 v 40 h 5 V 14 h 0.13086 l 10.4668,15.453125 h 4.80468 L 520.86914,14 H 521 v 31 h 5 V 5 h -3 -2 -0.13086 L 508,24 495.13086,5 H 495 Z" /><path
       id="rect3866-9"
       style="fill:#000000;fill-opacity:0.997577;stroke-width:0.623622"
       d="m 669,-80 v 40 h 5 v -31 h 0.13086 l 10.4668,15.45313 h 4.80468 L 699.86914,-71 H 700 v 31 h 5 v -40 h -3 -2 -0.13086 L 687,-61 674.13086,-80 H 674 Z" /><rect
       style="fill:#ff2424;fill-opacity:0.460572;stroke-width:0.610492"
       id="rect1148"
       width="23"
       height="29"
       x="2"
       y="84" /><rect
       style="fill:#ff2424;fill-opacity:0.460572;stroke-width:0.623622"
       id="rect1150"
       width="25"
       height="41"
       x="40"
       y="72" /><rect
       style="fill:#ff2424;fill-opacity:0.460572;stroke-width:0.609914"
       id="rect1152"
       width="22"
       height="29"
       x="77"
       y="84" /><rect
       style="fill:#ff2424;fill-opacity:0.458824;stroke-width:0.644389"
       id="rect1154"
       width="25"
       height="41"
       x="110"
       y="72" /><rect
       style="fill:#ff2424;fill-opacity:0.460572;stroke-width:0.623622"
       id="rect1209"
       width="25"
       height="29"
       x="149"
       y="84" /><rect
       style="fill:#ff2424;fill-opacity:0.460572;stroke-width:0.623622"
       id="rect1238"
       width="16"
       height="42"
       x="185"
       y="71" /><rect
       style="fill:#ff2424;fill-opacity:0.460572;stroke-width:0.636482"
       id="rect1240"
       width="25"
       height="41"
       x="212"
       y="84" /><rect
       style="fill:#ff2424;fill-opacity:0.460572;stroke-width:0.623622"
       id="rect1298"
       width="25"
       height="40"
       x="251"
       y="73" /><rect
       style="fill:#ff2424;fill-opacity:0.460572;stroke-width:0.623622"
       id="rect1357"
       width="7"
       height="40"
       x="290"
       y="73" /><rect
       style="fill:#ff2424;fill-opacity:0.460572;stroke-width:0.623622"
       id="rect1359"
       width="16"
       height="52"
       x="303"
       y="73" /><rect
       style="fill:#ff2424;fill-opacity:0.460572;stroke-width:0.623622"
       id="rect1361"
       width="26"
       height="40"
       x="334"
       y="73" /><rect
       style="fill:#ff2424;fill-opacity:0.460572;stroke-width:0.623622"
       id="rect1363"
       width="13"
       height="39"
       x="372"
       y="74" /><rect
       style="fill:#ff2424;fill-opacity:0.460572;stroke-width:0.623622"
       id="rect1365"
       width="41"
       height="29"
       x="397"
       y="84" /><rect
       style="fill:#ff2424;fill-opacity:0.460572;stroke-width:0.623622"
       id="rect1367"
       width="24"
       height="29"
       x="453"
       y="84" /><rect
       style="fill:#ff2424;fill-opacity:0.460572;stroke-width:0.623622"
       id="rect1369"
       width="26"
       height="29"
       x="490"
       y="84" /><rect
       style="fill:#ff2424;fill-opacity:0.460572;stroke-width:0.623622"
       id="rect1371"
       width="24"
       height="41"
       x="530"
       y="84" /><rect
       style="fill:#ff2424;fill-opacity:0.460572;stroke-width:0.623622"
       id="rect1373"
       width="25"
       height="41"
       x="566"
       y="84" /><rect
       style="fill:#ff2424;fill-opacity:0.460572;stroke-width:0.623622"
       id="rect1375"
       width="21"
       height="29"
       x="606"
       y="84" /><rect
       style="fill:#ff2424;fill-opacity:0.460572;stroke-width:0.623622"
       id="rect1377"
       width="25"
       height="29"
       x="635"
       y="84" /><rect
       style="fill:#ff2424;fill-opacity:0.460572;stroke-width:0.679576"
       id="rect1379"
       width="19"
       height="37"
       x="669"
       y="76" /><rect
       style="fill:#ff2424;fill-opacity:0.460572;stroke-width:0.623622"
       id="rect1381"
       width="24"
       height="29"
       x="698"
       y="84" /><rect
       style="fill:#ff2424;fill-opacity:0.460572;stroke-width:0.623622"
       id="rect1383"
       width="26"
       height="29"
       x="734"
       y="84" /><rect
       style="fill:#ff2424;fill-opacity:0.460572;stroke-width:0.623622"
       id="rect1385"
       width="42"
       height="29"
       x="767"
       y="84" /><rect
       style="fill:#ff2424;fill-opacity:0.460572;stroke-width:0.623622"
       id="rect1387"
       width="26"
       height="29"
       x="817"
       y="84" /><text
       xml:space="preserve"
       style="font-weight:bold;font-size:31.888px;font-family:'Latin Modern Roman';-inkscape-font-specification:'Latin Modern Roman,  Bold';fill:#ff2424;fill-opacity:0.460572;stroke-width:0.207146"
       x="3.6286235"
       y="82.257828"
       id="text1581"><tspan
         sodipodi:role="line"
         id="tspan1579"
         x="3.6286235"
         y="82.257828"
         style="stroke-width:0.207146">a</tspan></text><text
       xml:space="preserve"
       style="font-weight:bold;font-size:31.888px;font-family:'Latin Modern Roman';-inkscape-font-specification:'Latin Modern Roman,  Bold';fill:#ff2424;fill-opacity:0.460572;stroke-width:0.207146"
       x="918.69257"
       y="72.257828"
       id="text1581-3"><tspan
         sodipodi:role="line"
         id="tspan1579-5"
         x="918.69257"
         y="72.257828"
         style="stroke-width:0.207146">0</tspan></text><rect
       style="fill:#ff2424;fill-opacity:0.460572;stroke-width:0.623622"
       id="rect1773"
       width="26"
       height="41"
       x="852"
       y="84" /><rect
       style="fill:#ff2424;fill-opacity:0.460572;stroke-width:0.623622"
       id="rect1775"
       width="22"
       height="29"
       x="887"
       y="84" /><rect
       style="fill:#ff2424;fill-opacity:0.460572;stroke-width:0.623622"
       id="rect1777"
       width="25"
       height="40"
       x="921"
       y="73" /><rect
       style="fill:#ff2424;fill-opacity:0.460572;stroke-width:0.701863"
       id="rect1779"
       width="19"
       height="40"
       x="961"
       y="73" /><rect
       style="fill:#ff2424;fill-opacity:0.460572;stroke-width:0.623622"
       id="rect1781"
       width="25"
       height="41"
       x="995"
       y="72" /><rect
       style="fill:#ff2424;fill-opacity:0.460572;stroke-width:0.623622"
       id="rect1867"
       width="25"
       height="41"
       x="1032"
       y="72" /><rect
       style="fill:#ff2424;fill-opacity:0.460572;stroke-width:0.623622"
       id="rect1869"
       width="28"
       height="40"
       x="1068"
       y="73" /><rect
       style="fill:#ff2424;fill-opacity:0.460572;stroke-width:0.623622"
       id="rect1871"
       width="24"
       height="40"
       x="1107"
       y="73" /><rect
       style="fill:#ff2424;fill-opacity:0.460572;stroke-width:0.623622"
       id="rect1873"
       width="26"
       height="40"
       x="1143"
       y="73" /><rect
       style="fill:#ff2424;fill-opacity:0.460572;stroke-width:0.623622"
       id="rect1875"
       width="25"
       height="40"
       x="1181"
       y="73" /><rect
       style="fill:#ff2424;fill-opacity:0.460572;stroke-width:0.623622"
       id="rect1877"
       width="26"
       height="40"
       x="1216"
       y="73" /><rect
       style="fill:#ff2424;fill-opacity:0.460572;stroke-width:0.623622"
       id="rect1879"
       width="25"
       height="40"
       x="1255"
       y="73" /><path
       id="rect2058"
       style="fill:#000000;fill-opacity:0.997577;stroke-width:0.623622"
       d="m 301,5 v 40 h 5 V 27.5 h 19 V 45 h 5 V 5 h -5 V 22.5 H 306 V 5 Z" /><path
       id="rect2531-9"
       style="fill:#000000;fill-opacity:0.997577;stroke-width:1.76386"
       d="m 348,5 v 40 h 5 V 5 Z" /><path
       id="rect2531-9-1"
       style="fill:#000000;fill-opacity:0.997577;stroke-width:1.47575"
       d="m 385,5 v 27 c 0,5.09902 -3.13401,8 -7,8 -3.86599,0 -7,-3.134007 -7,-7 h -5 c 0,6.627417 5.37258,12 12,12 6.62742,0 12,-5 12,-13 V 5 Z"
       sodipodi:nodetypes="ccscccccc" /><path
       id="rect3044"
       style="fill:#000000;fill-opacity:0.997577;stroke-width:0.623622"
       d="m 406,5 v 40 h 5 V 27.537109 L 416.5293,22.007812 429.80469,45 h 5.77343 L 420.18945,18.347656 433.53516,5 h -7.07032 L 411,20.462891 V 5 Z" /><path
       id="rect3044-6"
       style="fill:#000000;fill-opacity:0.997577;stroke-width:0.623622"
       d="m 203,150 v 40 h 5 v -17.46289 l 5.5293,-5.5293 L 226.80469,190 h 5.77343 L 217.18945,163.34766 230.53516,150 h -7.07032 L 208,165.46289 V 150 Z" /><path
       id="rect3044-3"
       style="fill:#000000;fill-opacity:0.997577;stroke-width:0.623622"
       d="m 435,-80 v 40 h 5 v -17.46289 l 5.52929,-5.5293 L 458.80468,-40 h 5.77344 L 449.18945,-66.65234 462.53516,-80 h -7.07032 L 440,-64.53711 V -80 Z" /><path
       id="rect3488"
       style="fill:#000000;fill-opacity:0.997577;stroke-width:0.623622"
       d="m 450,5 v 40 h 25 V 40 H 455 V 5 Z"
       sodipodi:nodetypes="ccccccc" /><path
       id="rect6861"
       style="fill:#000000;fill-opacity:0.997577;stroke-width:0.623622"
       d="m 543,5 v 40 h 5 V 18.591797 l 20,19.886719 V 45 h 5 V 5 h -5 V 31.408203 L 548,11.521484 V 5 Z"
       sodipodi:nodetypes="ccccccccccccc" /><path
       id="rect6861-5"
       style="fill:#000000;fill-opacity:0.997577;stroke-width:0.623622"
       d="m 548,-80 v 40 h 5 v -26.4082 l 20,19.886716 V -40 h 5 v -40 h -5 v 26.408203 L 553,-73.47852 V -80 Z"
       sodipodi:nodetypes="ccccccccccccc" /><path
       id="rect7118"
       style="fill:#000000;fill-opacity:0.997577;stroke-width:0.623622"
       d="m 604,5 c -8.30999,0 -15,6.690008 -15,15 v 10 c 0,8.309992 6.69001,15 15,15 8.30999,0 15,-6.690008 15,-15 V 20 C 619,11.690008 612.30999,5 604,5 Z m 0,5 c 5.53999,0 10,5.017507 10,11.25 v 7.5 C 614,34.982493 609.53999,40 604,40 598.46001,40 594,34.982493 594,28.75 v -7.5 C 594,15.017507 598.46001,10 604,10 Z" /><path
       id="rect7118-8"
       style="fill:#000000;fill-opacity:0.997577;stroke-width:0.623622"
       d="m 233,-125 c -8.30999,0 -15,6.69001 -15,15 v 10 c 0,8.30999 6.69001,15 15,15 8.30999,0 15,-6.69001 15,-15 v -10 c 0,-8.30999 -6.69001,-15 -15,-15 z m 0,5 c 5.53999,0 10,5.01751 10,11.25 v 7.5 c 0,6.23249 -4.46001,11.25 -10,11.25 -5.53999,0 -10,-5.01751 -10,-11.25 v -7.5 c 0,-6.23249 4.46001,-11.25 10,-11.25 z" /><path
       id="rect7118-2"
       style="fill:#000000;fill-opacity:0.997577;stroke-width:0.623622"
       d="m 690,5 c -8.30998,0 -15,6.690016 -15,15 v 10 c 0,8.309984 6.69002,15 15,15 2.8846,0 5.57333,-0.806867 7.85547,-2.207031 l 3.0918,3.091797 3.53711,-3.535157 -2.85547,-2.855468 C 703.73721,36.911562 705,33.608964 705,30 V 20 C 705,11.690016 698.30998,5 690,5 Z m 0,5 c 5.53998,0 10,5.017513 10,11.25 v 7.5 c 0,2.638526 -0.80425,5.054254 -2.14648,6.96875 l -3.40821,-3.408203 -3.53515,3.537109 3.17773,3.177735 C 692.8411,39.65114 691.45802,40 690,40 684.46002,40 680,34.982487 680,28.75 v -7.5 C 680,15.017513 684.46002,10 690,10 Z" /><path
       id="rect7282"
       style="fill:#000000;fill-opacity:1;stroke-width:0.623622"
       d="m 634,5 v 20 20 h 5 V 25 c 0,0 9.33333,0 14,0 5.53997,0 10,-4.460018 10,-10 0,-5.5399835 -4.46003,-10 -10,-10 -4.66667,0 -14,0 -14,0 z m 5,5 c 0,0 8.29948,0 12.44922,0 3.62965,0 6.55078,2.230009 6.55078,5 0,2.769991 -2.92113,5 -6.55078,5 C 647.29948,20 639,20 639,20 Z"
       sodipodi:nodetypes="ccccccscccccsccc" /><path
       id="rect7282-7"
       style="fill:#000000;fill-opacity:1;stroke-width:0.623622"
       d="m 258,-125 v 20 20 h 5 v -20 c 0,0 9.33333,0 14,0 5.53997,0 10,-4.46002 10,-10 0,-5.53998 -4.46003,-10 -10,-10 -4.66667,0 -14,0 -14,0 z m 5,5 c 0,0 8.29948,0 12.44922,0 3.62965,0 6.55078,2.23001 6.55078,5 0,2.76999 -2.92113,5 -6.55078,5 -4.14974,0 -12.44922,0 -12.44922,0 z"
       sodipodi:nodetypes="ccccccscccccsccc" /><path
       id="rect7282-0"
       style="fill:#000000;fill-opacity:1;stroke-width:0.623622"
       d="m 720,5 v 20 20 h 5 V 25 h 8.67773 l 9.67579,20 h 5.55468 L 739.23047,24.994141 C 744.66266,24.871941 749,20.462597 749,15 749,9.460022 744.53996,5 739,5 h -14 z m 5,5 h 12.44922 C 741.07887,10 744,12.230012 744,15 c 0,2.769988 -2.92113,5 -6.55078,5 H 725 Z" /><path
       id="path8593"
       style="fill:#000000;fill-opacity:1;stroke-width:0.66668"
       d="M 776,5 C 767.71574,5 761,10.116752 761,16.428571 761,22.74039 767.71574,28 776,28 c 5.52284,0 10,2.415519 10,5.571429 C 786,36.727338 781.52284,40 776,40 c -5.52284,0 -10,-3.272662 -10,-6.428571 h -5 C 761,39.883247 767.71574,45 776,45 784.28426,45 791,39.883247 791,33.571429 791,27.25961 784.28426,23 776,23 770.47716,23 766,19.584481 766,16.428571 766,13.272662 770.47716,10 776,10 c 5.52284,0 10,3.272662 10,6.428571 h 5 C 791,10.116752 784.28426,5 776,5 Z"
       sodipodi:nodetypes="sssssccsssssccs" /><path
       id="rect9745"
       style="fill:#000000;fill-opacity:1;stroke-width:0.623622"
       d="m 801,5 v 5 h 12 v 35 h 5 V 10 h 12 V 5 Z" /><path
       id="rect9745-0"
       style="fill:#000000;fill-opacity:1;stroke-width:0.623622"
       d="m 364,-125 v 5 h 12 v 35 h 5 v -35 h 12 v -5 z" /><path
       id="rect9962"
       style="fill:#000000;fill-opacity:1;stroke-width:0.623622"
       d="m 842,5 v 25 c 0,8.309984 6.69002,15 15,15 8.30998,0 15,-6.690016 15,-15 V 5 h -5 v 5 1 17.75 C 867,34.982482 862.53997,40 857,40 851.46003,40 847,34.982482 847,28.75 V 11 10 5 Z" /><path
       id="rect9962-5"
       style="fill:#000000;fill-opacity:1;stroke-width:0.623622"
       d="m 628,-80 v 25 c 0,8.309984 6.69002,15 15,15 8.30998,0 15,-6.690016 15,-15 v -25 h -5 v 5 1 17.75 c 0,6.232482 -4.46003,11.25 -10,11.25 -5.53997,0 -10,-5.017518 -10,-11.25 V -74 v -1 -5 z" /><path
       id="rect4416-8"
       style="fill:#000000;fill-opacity:1;stroke-width:0.865197"
       d="M 903.07492,44.991087 917,5 911.8266,5.000789 900.49023,37.000394 889.19888,5.000789 883.98045,5 897.90553,44.991087 Z"
       sodipodi:nodetypes="cccccccc" /><path
       id="rect4416-8-6"
       style="fill:#000000;fill-opacity:1;stroke-width:0.865197"
       d="M 489.09447,-40.008913 503.01955,-80 l -5.1734,7.9e-4 -11.33637,31.9996 -11.29135,-31.9996 L 470,-80 l 13.92508,39.991087 z"
       sodipodi:nodetypes="cccccccc" /><path
       id="rect4416-8-9"
       style="fill:#000000;fill-opacity:1;stroke-width:0.775552"
       d="m 928,5 11.18945,39.990234 h 4.15235 L 952.5,13 l 9.1582,31.990234 h 4.15235 L 977,5 h -5 L 963.73438,36 955,5 h -5 L 941.26562,36 933,5 Z"
       sodipodi:nodetypes="cccccccccccccc" /><path
       id="rect11394"
       style="fill:#000000;fill-opacity:1;stroke-width:0.744438"
       d="m 827.58427,-534.17482 21.56299,9.2635 -10e-4,24.42963 4.99997,-3.26337 1.2e-4,-19.0178 17.57093,7.54957 5.0932,-3.32422 -22.66565,-9.73796 4e-5,-23.2346 -4.99833,3.26231 -4e-4,17.82383 -16.46827,-7.07511 z"
       transform="rotate(33.131577)" /><path
       id="rect11394-6"
       style="fill:#000000;fill-opacity:1;stroke-width:0.744438"
       d="M 1022.9941,5 1036.5,25.3125 V 45 h 5 V 25.242188 L 1054.7109,5 h -5.9687 L 1039,19.925781 1029.0762,5 Z"
       sodipodi:nodetypes="cccccccccc" /><path
       id="rect11920"
       style="fill:#000000;fill-opacity:1;stroke-width:0.623622"
       d="m 1063,5 v 5 h 20.9453 L 1063,39.658203 V 45 h 2.3496 H 1090 v -5 h -21.1211 L 1090,10.091797 V 5 h -2.5254 z" /><rect
       style="fill:#000000;fill-opacity:1;stroke-width:0.748346"
       id="rect12852"
       width="6"
       height="6"
       x="1128"
       y="39" /><rect
       style="fill:#000000;fill-opacity:1;stroke-width:0.748346"
       id="rect12852-5"
       width="6"
       height="6"
       x="1106"
       y="39" /><rect
       style="fill:#000000;fill-opacity:1;stroke-width:0.748346"
       id="rect12852-5-0"
       width="6"
       height="6"
       x="1106"
       y="25" /><rect
       style="fill:#000000;fill-opacity:1;stroke-width:1.08014"
       id="rect12852-4"
       width="15"
       height="5"
       x="1173"
       y="28" /><path
       id="rect12852-9"
       style="fill:#000000;fill-opacity:1;stroke-width:0.748346"
       d="m 1151,39 v 8 h 6 v -8 z m 0,8 v 2 3 h 3 c 1.662,0 3,-1.338002 3,-3 v -5 z"
       sodipodi:nodetypes="ccccccccsscc" /><path
       id="rect9745-3"
       style="fill:#000000;fill-opacity:1;stroke-width:0.623622"
       d="m 588,-80 v 5 h 12 v 35 h 5 v -35 h 12 v -5 z" /><rect
       style="fill:#000000;fill-opacity:1;stroke-width:0.623622"
       id="rect669"
       width="19"
       height="5"
       x="514"
       y="-51" /><path
       id="rect4416-7-27"
       style="fill:#000000;fill-opacity:1;stroke-width:0.890517"
       d="M 520.75204,-139.99554 506,-100.00446 l 5.48063,-7.9e-4 12.0096,-31.9996 11.96189,31.9996 5.52834,7.9e-4 -14.75204,-39.99108 z"
       sodipodi:nodetypes="cccccccc" /><path
       id="rect4416-7-2-0"
       style="fill:#000000;fill-opacity:1;stroke-width:0.890517"
       d="M 728.75204,-139.99554 714,-100.00446 l 5.48063,-7.8e-4 12.0096,-31.99961 11.9619,31.99961 5.52833,7.8e-4 -14.75203,-39.99108 z"
       sodipodi:nodetypes="cccccccc" /><path
       id="rect3866-9-9"
       style="fill:#000000;fill-opacity:0.997577;stroke-width:0.623622"
       d="m 669,-140.00446 v 40 h 5 v -31 h 0.13086 l 10.4668,15.45313 h 4.80468 l 10.4668,-15.45313 H 700 v 31 h 5 v -40 h -3 -2 -0.13086 l -12.86914,19 -12.86914,-19 H 674 Z" /><path
       id="rect3044-3-3"
       style="fill:#000000;fill-opacity:0.997577;stroke-width:0.623622"
       d="m 435,-140.00446 v 40 h 5 v -17.46289 l 5.52929,-5.5293 13.27539,22.99219 h 5.77344 l -15.38867,-26.65234 13.34571,-13.34766 h -7.07032 L 440,-124.54157 v -15.46289 z" /><path
       id="rect6861-5-6"
       style="fill:#000000;fill-opacity:0.997577;stroke-width:0.623622"
       d="m 548,-140.00446 v 40 h 5 v -26.4082 l 20,19.88672 v 6.52148 h 5 v -40 h -5 v 26.40821 l -20,-19.88673 v -6.52148 z"
       sodipodi:nodetypes="ccccccccccccc" /><path
       id="rect9962-5-0"
       style="fill:#000000;fill-opacity:1;stroke-width:0.623622"
       d="m 628,-140.00446 v 25 c 0,8.30999 6.69002,15 15,15 8.30998,0 15,-6.69001 15,-15 v -25 h -5 v 5 1 17.75 c 0,6.23248 -4.46003,11.25 -10,11.25 -5.53997,0 -10,-5.01752 -10,-11.25 v -17.75 -1 -5 z" /><path
       id="rect4416-8-6-6"
       style="fill:#000000;fill-opacity:1;stroke-width:0.865197"
       d="m 489.09447,-100.01337 13.92508,-39.99109 -5.1734,7.9e-4 -11.33637,31.9996 -11.29135,-31.9996 -5.21843,-7.9e-4 13.92508,39.99109 z"
       sodipodi:nodetypes="cccccccc" /><path
       id="rect9745-3-2"
       style="fill:#000000;fill-opacity:1;stroke-width:0.623622"
       d="m 588,-140.00446 v 5 h 12 v 35 h 5 v -35 h 12 v -5 z" /><path
       id="rect12933"
       style="fill:#000000;fill-opacity:1;stroke-width:0.623622"
       d="M 1214,0.04492187 C 1207.8239,0.55038043 1203,5.6891939 1203,12 v 27 c 0,6.310806 4.8239,11.44962 11,11.955078 V 45.753906 C 1210.5137,44.88963 1207.9414,41.760933 1207.9414,38 V 13 c 0,-3.7609325 2.5723,-6.8896299 6.0586,-7.7539062 z m 14,0 V 5.2460938 c 3.4863,0.8642763 6.0586,3.9929737 6.0586,7.7539062 v 25 c 0,3.760933 -2.5723,6.88963 -6.0586,7.753906 v 5.201172 C 1234.1761,50.44962 1239,45.310806 1239,39 V 12 c 0,-6.3108061 -4.8239,-11.44961957 -11,-11.95507813 z" /><path
       id="rect1556"
       style="fill:#000000;stroke-width:0.517332"
       d="M 13.285156,86.003167 A 12,11.172608 0 0 0 2.6074219,91.585834 l 4.34375,2.3349 A 7,6.5173548 0 0 1 13,90.654783 a 7,6.5173548 0 0 1 7,6.517356 v 1.585695 A 10.5,8.3794561 0 0 0 12.5,96.241088 10.5,8.3794561 0 0 0 2,104.62054 10.5,8.3794561 0 0 0 12.5,113 10.5,8.3794561 0 0 0 20,110.45598 V 113 h 5 V 97.172139 A 12,11.172608 0 0 0 16.105469,86.379588 12,11.172608 0 0 0 13.285156,86.003167 Z M 13,100.89634 a 6,3.7242027 0 0 1 6,3.7242 6,3.7242027 0 0 1 -6,3.72421 6,3.7242027 0 0 1 -6,-3.72421 6,3.7242027 0 0 1 6,-3.7242 z" /><path
       id="rect1556-7"
       style="fill:#000000;stroke-width:0.517332"
       d="m 245.28516,163.00317 a 12,11.172608 0 0 0 -10.67774,5.58266 l 4.34375,2.3349 A 7,6.5173548 0 0 1 245,167.65478 a 7,6.5173548 0 0 1 7,6.51736 v 1.58569 A 10.5,8.3794561 0 0 0 244.5,173.24109 10.5,8.3794561 0 0 0 234,181.62054 10.5,8.3794561 0 0 0 244.5,190 10.5,8.3794561 0 0 0 252,187.45598 V 190 h 5 v -15.82786 a 12,11.172608 0 0 0 -8.89453,-10.79255 12,11.172608 0 0 0 -2.82031,-0.37642 z M 245,177.89634 a 6,3.7242027 0 0 1 6,3.7242 6,3.7242027 0 0 1 -6,3.72421 6,3.7242027 0 0 1 -6,-3.72421 6,3.7242027 0 0 1 6,-3.7242 z" /><path
       id="rect11314"
       style="fill:#000000;fill-opacity:1;stroke-width:0.623622"
       d="m 40,72 v 41 h 5 v -3.33008 A 12,13 0 0 0 53,113 12,13 0 0 0 65,100 12,13 0 0 0 53,87 12,13 0 0 0 45,90.330078 V 72 Z m 13,20 a 7,8 0 0 1 7,8 7,8 0 0 1 -7,8 7,8 0 0 1 -7,-8 7,8 0 0 1 7,-8 z" /><path
       id="ellipse18947"
       style="fill:#000000;fill-opacity:1;stroke-width:0.61814"
       d="M 88.789934,87 A 11.789934,13 0 0 0 85.738328,87.443359 11.789934,13 0 0 0 77,100 11.789934,13 0 0 0 85.738328,112.55664 11.789934,13 0 0 0 99,106.5 l -4.337125,-2.76172 A 6.6638756,8 0 0 1 88.789934,108 a 6.6638756,8 0 0 1 -6.663876,-8 6.6638756,8 0 0 1 6.663876,-8 6.6638756,8 0 0 1 5.886958,4.251953 L 99,93.5 A 11.789934,13 0 0 0 88.789934,87 Z" /><path
       id="ellipse18947-3"
       style="fill:#000000;fill-opacity:1;stroke-width:0.610492"
       d="m 160.5,87 c -1.00506,1.15e-4 -2.00577,0.149171 -2.97656,0.443359 C 152.49601,88.96624 149.00014,94.116318 149,100 c 1.4e-4,5.88368 3.49601,11.03376 8.52344,12.55664 5.02747,1.52283 10.33297,-0.96129 12.93554,-6.05664 l -4.23046,-2.76172 c -1.12275,2.6145 -3.32579,4.25345 -5.72852,4.26172 -2.90626,-0.014 -5.45178,-2.40086 -6.23438,-5.8457 1.03798,0.23853 2.10534,0.36251 3.17774,0.36914 6.35976,-0.28231 12.72809,-3.919589 12.16586,-9.242235 C 169.14237,88.861431 164.60844,87.000126 160.5,87 Z m 0,5 c 1.51123,0.0068 2.97331,0.661553 4.13477,1.851562 -1.33353,2.24218 -4.12649,3.668244 -7.19141,3.671876 -1.01739,-0.0048 -2.02431,-0.167182 -2.9668,-0.478516 C 155.45795,94.006204 157.84315,92.008485 160.5,92 Z"
       sodipodi:nodetypes="cccccccccscccccc" /><path
       id="rect11314-6"
       style="fill:#000000;fill-opacity:1;stroke-width:0.623622"
       d="m 135,72 v 41 h -5 v -3.33008 A 12,13 0 0 1 122,113 a 12,13 0 0 1 -12,-13 12,13 0 0 1 12,-13 12,13 0 0 1 8,3.330078 V 72 Z m -13,20 a 7,8 0 0 0 -7,8 7,8 0 0 0 7,8 7,8 0 0 0 7,-8 7,8 0 0 0 -7,-8 z" /><path
       id="rect22815"
       style="fill:#000000;fill-opacity:1;stroke-width:0.573338"
       d="M 194.5 70.999446 A 6.5 6.5 0 0 0 188 77.499446 L 188 89.999446 L 185 89.999446 L 185 94.999446 L 188 94.999446 L 188 112.99945 L 193 112.99945 L 193 94.999446 L 198 94.999446 L 198 89.999446 L 193 89.999446 L 193 77.499446 A 1.5 1.5 0 0 1 194.5 75.999446 A 1.5 1.5 0 0 1 196 77.499446 L 201 77.499446 A 6.5 6.5 0 0 0 194.5 70.999446 z " /><path
       id="rect22815-0"
       style="fill:#000000;fill-opacity:1;stroke-width:0.573338"
       d="m 273,148 a 6.5,6.5 0 0 0 -6.5,6.5 V 167 h -3 v 5 h 3 v 18 h 5 v -18 h 5 v -5 h -5 v -12.5 a 1.5,1.5 0 0 1 1.5,-1.5 1.5,1.5 0 0 1 1.5,1.5 h 5 A 6.5,6.5 0 0 0 273,148 Z" /><path
       id="rect22815-3"
       style="fill:#000000;fill-opacity:1;stroke-width:0.573338"
       d="m 317,83.999446 v 32.000004 a 6.5,6.5 0 0 1 -6.5,6.5 6.5,6.5 0 0 1 -6.5,-6.5 h 5 a 1.5,1.5 0 0 0 1.5,1.5 1.5,1.5 0 0 0 1.5,-1.5 V 83.999446 Z" /><ellipse
       style="fill:#858585;fill-opacity:1;stroke-width:0.623622"
       id="path29048"
       cx="163"
       cy="65"
       rx="12"
       ry="13" /><path
       id="path29048-0"
       style="fill:#000000;fill-opacity:1;stroke-width:0.623622"
       d="M 224 86.999446 A 12 13 0 0 0 212 99.999446 A 12 13 0 0 0 224 112.99945 A 12 13 0 0 0 232 109.67132 L 232 112.99945 A 7.000001 7.5833344 0 0 1 225 120.58343 A 7.000001 7.5833344 0 0 1 218.24805 114.96038 L 213.4082 116.36468 A 12 13 0 0 0 226.56641 125.88812 A 12 13 0 0 0 237 112.99945 L 237 86.999446 L 232 86.999446 L 232 90.313899 A 12 13 0 0 0 224 86.999446 z M 224 91.999446 A 7 8 0 0 1 231 99.999446 A 7 8 0 0 1 224 107.99945 A 7 8 0 0 1 217 99.999446 A 7 8 0 0 1 224 91.999446 z " /><rect
       style="fill:#000000;fill-opacity:1;stroke-width:0.569286"
       id="rect1444"
       width="5.000001"
       height="29"
       x="291"
       y="84" /><rect
       style="fill:#000000;fill-opacity:1;stroke-width:0.623622"
       id="rect1498"
       width="5"
       height="5"
       x="291"
       y="75" /><rect
       style="fill:#000000;fill-opacity:1;stroke-width:0.623622"
       id="rect1498-5"
       width="5"
       height="5"
       x="-317"
       y="75"
       transform="scale(-1,1)" /><path
       id="rect2690"
       style="fill:#000000;fill-opacity:1;stroke-width:0.623622"
       d="M 334 72.999446 L 334 112.99945 L 339 112.99945 L 339 101.53656 L 342.49609 98.038509 L 353.46484 112.99945 L 359.66602 112.99945 L 346.07422 94.462337 L 356.53516 83.999446 L 349.46484 83.999446 L 339 94.46429 L 339 72.999446 L 334 72.999446 z " /><path
       id="rect1556-7-6"
       style="fill:#000000;stroke-width:0.517332"
       d="m 324.28516,163.00317 a 12,11.172608 0 0 0 -10.67774,5.58266 l 4.34375,2.3349 A 7,6.5173548 0 0 1 324,167.65478 a 7,6.5173548 0 0 1 7,6.51736 v 1.58569 A 10.5,8.3794561 0 0 0 323.5,173.24109 10.5,8.3794561 0 0 0 313,181.62054 10.5,8.3794561 0 0 0 323.5,190 10.5,8.3794561 0 0 0 331,187.45598 V 190 h 5 v -15.82786 a 12,11.172608 0 0 0 -8.89453,-10.79255 12,11.172608 0 0 0 -2.82031,-0.37642 z M 324,177.89634 a 6,3.7242027 0 0 1 6,3.7242 6,3.7242027 0 0 1 -6,3.72421 6,3.7242027 0 0 1 -6,-3.72421 6,3.7242027 0 0 1 6,-3.7242 z" /><path
       id="rect2690-2-0"
       style="fill:#000000;fill-opacity:1;stroke-width:0.623622"
       d="m 284,150 v 40 h 5 v -11.46289 l 3.49609,-3.49805 L 303.46484,190 h 6.20118 L 296.07422,171.46289 306.53516,161 h -7.07032 L 289,171.46484 V 150 Z" /><path
       id="rect3463"
       style="fill:#000000;fill-opacity:1;stroke-width:3.52774"
       d="m 372,74 v 32.4961 c -2.6e-4,1.72448 0.68477,3.37839 1.9043,4.59765 1.21911,1.21833 2.87217,1.90261 4.5957,1.90235 h 3 v -5 h -3 c -0.82843,0 -1.5,-0.67157 -1.5,-1.5 V 74 Z" /><rect
       style="fill:#000000;fill-opacity:1;stroke-width:1.93892"
       id="rect18584"
       width="5"
       height="29.000008"
       x="453"
       y="83.999992" /></g></svg>
